<svg xmlns="http://www.w3.org/2000/svg" viewBox="0 0 2079 1024"><path d="M2080 104c0 273.7 0 547.399-.376 821.659-.79 1.237-1.466 1.873-1.577 2.596-3.195 20.769-12.325 38.946-25.727 54.697-15.892 18.677-35.602 32.052-59.751 38.105-5.507 1.38-11.045 2.632-16.569 3.943-623.366 0-1246.732 0-1870.698-.395-2.424-.471-4.3-.301-6.068-.66-20.696-4.21-39.751-12.312-55.752-26.168-18.942-16.401-32.842-36.305-38.653-61.196C3.91 932.638 2.294 928.856 1 925c0-274.366 0-548.732.373-823.67.79-1.78 1.382-2.96 1.6-4.206C6.548 76.69 15.322 58.565 28.712 42.979c15.971-18.591 35.612-31.983 59.73-38.044C93.945 3.552 99.48 2.308 105 1c623.366 0 1246.732 0 1870.698.395 12.21 1.039 22.997 4.817 33.536 9.33 15.351 6.575 28.404 16.381 39.692 28.662 10.632 11.566 18.994 24.523 24.005 39.42 2.778 8.256 4.74 16.787 7.069 25.193M23 180.5c0 243.164-.005 486.328.014 729.492 0 12.662 3.31 24.617 8.535 36.034 7.245 15.832 17.91 29.003 32.126 39.062 15.49 10.959 32.715 17.826 51.824 17.829 616.498.1 1232.995.085 1849.493.07 12.66-.001 24.593-3.361 36.039-8.523 15.908-7.174 29.013-17.942 39.036-32.154 10.913-15.473 17.853-32.665 17.86-51.808.108-264.832.077-529.665.06-794.497-.001-12.662-3.313-24.615-8.537-36.033-7.245-15.833-17.91-29.002-32.127-39.061-15.489-10.96-32.715-17.824-51.824-17.828-615.664-.1-1231.329-.104-1846.993.11-9.575.004-19.45 1.91-28.66 4.678-17.392 5.225-31.878 15.303-43.666 29.352-14.327 17.074-22.636 36.47-23.088 58.78C22.664 137.16 23 158.332 23 180.5" fill="#f5c518"/><path d="M873 816h-23.801V427.538l-1.355-.234c-.615 3.547-1.313 7.082-1.829 10.643-1.674 11.576-3.337 23.154-4.896 34.745-1.129 8.394-2.002 16.822-3.142 25.214-1.222 9.007-2.708 17.979-3.919 26.987-1.128 8.396-1.95 16.834-3.081 25.23-1.562 11.588-3.376 23.143-4.914 34.735-1.157 8.725-1.936 17.5-3.096 26.225-1.132 8.525-2.616 17.002-3.793 25.521-1.158 8.387-2.05 16.81-3.194 25.2-1.23 9.006-2.7 17.98-3.911 26.989-1.129 8.396-1.963 16.831-3.091 25.227-1.558 11.59-3.352 23.149-4.89 34.742-1.156 8.724-1.963 17.495-3.118 26.22-1.129 8.526-2.556 17.013-3.745 25.533-.541 3.88-.576 7.847-1.354 11.67-.29 1.424-2.035 3.648-3.128 3.654-31.458.198-62.917.16-94.256.16-18.078-125.803-36.1-251.21-54.12-376.618l-1.705.103v376.273h-136.42V217.255h201.084L746.28 488.46l1.14.16 34.7-271.385h201.613V816zm492.79-42.295c-13.83 18.283-32.169 28.845-53.723 34.276-14.899 3.755-30.032 5.813-45.421 6.051-10.92.17-21.835.862-32.755.93-64.912.41-129.825.705-194.737 1.037-.826.004-1.65 0-2.815 0V217.285c.961-.079 2.216-.27 3.47-.271 42.329-.016 84.658-.098 126.987.033 14.918.046 29.847.359 44.75 1.03 14.603.657 29.214 1.575 43.76 3.001 25.82 2.53 51.115 7.424 74.178 20.108 16.976 9.336 29.9 22.9 39.488 39.656 9.169 16.027 13.439 33.382 14.081 51.781.38 10.846 1.492 21.666 1.895 32.512.542 14.576.938 29.165 1.015 43.751.412 77.744.764 155.489.984 233.234.04 14.583-.119 29.2-1.077 43.744-1.116 16.951-2.469 33.956-5.14 50.711-1.83 11.484-5.473 22.814-12.37 32.65-.914 1.305-1.552 2.802-2.57 4.481m-130.788-433.06c-1.804-8.074-7.066-13.514-14.408-16.25-9.389-3.5-19.348-4.03-29.385-3.15v390.133c6.434-.472 12.73-.345 18.784-1.496 14.154-2.692 20.738-7.141 23.577-19.494 2.611-11.36 4.208-23.22 4.246-34.865.323-97.954.242-195.91.057-293.865-.012-6.725-1.837-13.447-2.87-21.013M1587 276v133.963c5.77-5.234 11.02-10.328 16.614-15.01 14.639-12.248 31.279-20.461 50.318-22.851 12.342-1.55 24.848-3.259 37.213-2.85 22.335.74 43.916 5.3 62.66 18.724 17.037 12.2 27.063 29.01 31 49.229 1.806 9.273 2.05 18.947 2.112 28.446.483 74.582 1.133 149.168.851 223.749-.085 22.65-1.043 45.492-6.786 67.696-3.124 12.077-8.85 22.765-17.444 31.892-12.679 13.465-27.265 23.865-45.192 29.313-17.084 5.192-34.457 6.27-51.955 3.576-10.623-1.636-21.248-3.896-31.515-7.04-10.546-3.23-19.834-9.324-28.11-16.652-6.741-5.969-13.131-12.335-19.907-18.743l-9.422 36.446H1438.29V217.291H1587zm0 273.5c0 8-.11 16 .018 23.998.733 46-1.946 92.053 2.069 137.993.54 6.177 1.043 12.667 5.59 17.672 6.922 7.62 15.318 7.852 24.594 5.25 7.193-2.017 13.954-4.696 15.55-12.65 1.726-8.59 3.01-17.435 3.045-26.174.25-62.996.219-125.994.044-188.99-.026-9.666-.877-19.374-2.05-28.977-.75-6.146-2.172-12.232-8.514-15.912-7.743-4.494-16.052-5.728-24.495-4.429-5.955.917-11.036 4.625-11.861 11.3-1.58 12.776-3.232 25.585-3.842 38.428-.655 13.802-.148 27.658-.148 42.491M455 416v399.71H300.286V217.29H455z" fill="#f5c518"/></svg>