<svg xmlns="http://www.w3.org/2000/svg" viewBox="0 0 2079 1024"><defs><radialGradient id="b" cx="0" cy="0" r="1" gradientUnits="userSpaceOnUse" gradientTransform="rotate(2.333 -3091.579 13181.057)scale(2927.83196 504.56337)"><stop offset=".5" stop-color="#f50"/><stop offset="1" stop-color="#bdf700"/></radialGradient><radialGradient id="c" cx="0" cy="0" r="1" gradientUnits="userSpaceOnUse" gradientTransform="rotate(2.333 -3091.579 13181.057)scale(2927.83196 504.56337)"><stop offset=".5" stop-color="#f50"/><stop offset="1" stop-color="#bdf700"/></radialGradient><radialGradient id="d" cx="0" cy="0" r="1" gradientUnits="userSpaceOnUse" gradientTransform="rotate(2.333 -3091.579 13181.057)scale(2927.83196 504.56337)"><stop offset=".5" stop-color="#f50"/><stop offset="1" stop-color="#bdf700"/></radialGradient><radialGradient id="e" cx="0" cy="0" r="1" gradientUnits="userSpaceOnUse" gradientTransform="rotate(2.333 -3091.579 13181.057)scale(2927.83196 504.56337)"><stop offset=".5" stop-color="#f50"/><stop offset="1" stop-color="#bdf700"/></radialGradient><radialGradient id="f" cx="0" cy="0" r="1" gradientUnits="userSpaceOnUse" gradientTransform="rotate(2.333 -14104.376 -13677.234)scale(2927.33408 504.47757)"><stop offset=".5" stop-color="#f50"/><stop offset="1" stop-color="#bdf700"/></radialGradient><radialGradient id="g" cx="0" cy="0" r="1" gradientUnits="userSpaceOnUse" gradientTransform="rotate(2.333 -14104.376 -13677.234)scale(2927.33408 504.47757)"><stop offset=".5" stop-color="#f50"/><stop offset="1" stop-color="#bdf700"/></radialGradient><radialGradient id="h" cx="0" cy="0" r="1" gradientUnits="userSpaceOnUse" gradientTransform="rotate(2.333 -14104.376 -13677.234)scale(2927.33408 504.47757)"><stop offset=".5" stop-color="#f50"/><stop offset="1" stop-color="#bdf700"/></radialGradient><radialGradient id="i" cx="0" cy="0" r="1" gradientUnits="userSpaceOnUse" gradientTransform="rotate(2.333 -14104.376 -13677.234)scale(2927.33408 504.47757)"><stop offset=".5" stop-color="#f50"/><stop offset="1" stop-color="#bdf700"/></radialGradient><radialGradient id="j" cx="0" cy="0" r="1" gradientUnits="userSpaceOnUse" gradientTransform="rotate(2.333 -14104.376 -13677.234)scale(2927.33408 504.47757)"><stop offset=".5" stop-color="#f50"/><stop offset="1" stop-color="#bdf700"/></radialGradient><linearGradient id="a" x1="0%" y1="0%" x2="100%" y2="100%"><stop offset=".6" stop-color="#f50"/><stop offset="1" stop-color="#bdf700"/></linearGradient></defs><path d="M2080 104c0 273.7 0 547.399-.376 821.659-.79 1.237-1.466 1.873-1.577 2.596-3.195 20.769-12.325 38.946-25.727 54.697-15.892 18.677-35.602 32.052-59.751 38.105-5.507 1.38-11.045 2.632-16.569 3.943-623.366 0-1246.732 0-1870.698-.395-2.424-.471-4.3-.301-6.068-.66-20.696-4.21-39.751-12.312-55.752-26.168-18.942-16.401-32.842-36.305-38.653-61.196C3.91 932.638 2.294 928.856 1 925c0-274.366 0-548.732.373-823.67.79-1.78 1.382-2.96 1.6-4.206C6.548 76.69 15.322 58.565 28.712 42.979c15.971-18.591 35.612-31.983 59.73-38.044C93.945 3.552 99.48 2.308 105 1c623.366 0 1246.732 0 1870.698.395 12.21 1.039 22.997 4.817 33.536 9.33 15.351 6.575 28.404 16.381 39.692 28.662 10.632 11.566 18.994 24.523 24.005 39.42 2.778 8.256 4.74 16.787 7.069 25.193M23 180.5c0 243.164-.005 486.328.014 729.492 0 12.662 3.31 24.617 8.535 36.034 7.245 15.832 17.91 29.003 32.126 39.062 15.49 10.959 32.715 17.826 51.824 17.829 616.498.1 1232.995.085 1849.493.07 12.66-.001 24.593-3.361 36.039-8.523 15.908-7.174 29.013-17.942 39.036-32.154 10.913-15.473 17.853-32.665 17.86-51.808.108-264.832.077-529.665.06-794.497-.001-12.662-3.313-24.615-8.537-36.033-7.245-15.833-17.91-29.002-32.127-39.061-15.489-10.96-32.715-17.824-51.824-17.828-615.664-.1-1231.329-.104-1846.993.11-9.575.004-19.45 1.91-28.66 4.678-17.392 5.225-31.878 15.303-43.666 29.352-14.327 17.074-22.636 36.47-23.088 58.78C22.664 137.16 23 158.332 23 180.5" fill="url(#a)"/><path d="M533.95 136.701h69.697v92.775l66.841-92.775h83.683L643.099 250.163l208.159-113.462v78.847l-182.693 67.307 182.693-15.384v74.999l-182.693-15.384 182.693 67.308v78.846L643.099 359.779 754.171 473.24h-83.683l-66.841-92.774v92.774H533.95z" fill="url(#b)"/><path d="M893.566 136.701h84.614V473.24h-84.614z" fill="url(#c)"/><path d="m1171.42 473.24-88.93-207.226 10.09 207.226h-72.15V136.701h78.38l88.93 206.761-10.09-206.761h72.15V473.24z" fill="url(#d)"/><path d="M1281.5 305c0-96.154 47.61-175 131.76-175s131.76 78.846 131.76 175-47.61 175-131.76 175-131.76-78.846-131.76-175m131.76 121.154c24.07 0 41.84-45.688 41.84-121.154s-17.77-121.154-41.84-121.154-41.84 45.688-41.84 121.154 17.83 121.154 41.84 121.154" fill="url(#e)"/><path d="M696.305 671.364c0 72.132-50.982 112.977-123.054 112.977h-15.384v114.898H474.2V562.758h99.051c72.072-.056 123.054 32.163 123.054 108.606M557.811 619.45v110.064h10.077c24.066 0 44.691-18.763 44.691-58.15 0-39.443-20.684-51.914-44.691-51.914z" fill="url(#f)"/><path d="M714.076 730.968c0-96.134 47.603-174.968 131.737-174.968 84.136 0 131.739 78.834 131.739 174.968 0 96.139-47.603 174.972-131.739 174.972-84.193 0-131.737-78.833-131.737-174.972m131.681 121.134c24.062 0 41.833-45.679 41.833-121.134 0-75.451-17.771-121.133-41.833-121.133-24.063 0-41.834 45.682-41.834 121.133 0 75.455 17.827 121.134 41.834 121.134" fill="url(#g)"/><path d="M1009.19 562.702h84.6v336.481h-84.6z" fill="url(#h)"/><path d="M1214.46 761.733c-62.99-38.921-86.53-64.382-86.53-108.14 0-58.146 41.84-97.593 104.82-97.593 58.67 0 98.06 28.374 109.6 80.288l1.92 8.682-77.37 13.46c-4.31-34.143-16.38-49.99-34.61-49.99-16.38 0-26.46 11.069-26.46 28.374 0 16.839 8.16 31.231 54.31 58.613 63.45 37.992 83.67 62.52 83.67 108.665 0 61.995-43.3 101.908-109.6 101.908-57.68 0-101.91-26.453-113.44-81.746l-1.93-9.149 79.83-14.917c4.31 36.067 16.84 53.372 37.99 53.372 13.92 0 26.91-11.535 26.91-32.223-.11-22.604-14.97-38.454-49.11-59.604" fill="url(#i)"/><path d="M1372.12 562.702h84.6v139.893l59.14-139.893h86.53l-91.83 162.967 94.22 173.57h-93.75l-54.31-139.893v139.893h-84.6z" fill="url(#j)"/></svg>