<svg xmlns="http://www.w3.org/2000/svg" viewBox="0 0 2079 1024"><defs><linearGradient id="a" x1="0%" y1="0%" x2="100%" y2="100%"><stop offset=".6" stop-color="#fcd24c"/><stop offset="1" stop-color="#d35722"/></linearGradient></defs><path d="M2080 104c0 273.7 0 547.399-.376 821.659-.79 1.237-1.466 1.873-1.577 2.596-3.195 20.769-12.325 38.946-25.727 54.697-15.892 18.677-35.602 32.052-59.751 38.105-5.507 1.38-11.045 2.632-16.569 3.943-623.366 0-1246.732 0-1870.698-.395-2.424-.471-4.3-.301-6.068-.66-20.696-4.21-39.751-12.312-55.752-26.168-18.942-16.401-32.842-36.305-38.653-61.196C3.91 932.638 2.294 928.856 1 925c0-274.366 0-548.732.373-823.67.79-1.78 1.382-2.96 1.6-4.206C6.548 76.69 15.322 58.565 28.712 42.979c15.971-18.591 35.612-31.983 59.73-38.044C93.945 3.552 99.48 2.308 105 1c623.366 0 1246.732 0 1870.698.395 12.21 1.039 22.997 4.817 33.536 9.33 15.351 6.575 28.404 16.381 39.692 28.662 10.632 11.566 18.994 24.523 24.005 39.42 2.778 8.256 4.74 16.787 7.069 25.193M23 180.5c0 243.164-.005 486.328.014 729.492 0 12.662 3.31 24.617 8.535 36.034 7.245 15.832 17.91 29.003 32.126 39.062 15.49 10.959 32.715 17.826 51.824 17.829 616.498.1 1232.995.085 1849.493.07 12.66-.001 24.593-3.361 36.039-8.523 15.908-7.174 29.013-17.942 39.036-32.154 10.913-15.473 17.853-32.665 17.86-51.808.108-264.832.077-529.665.06-794.497-.001-12.662-3.313-24.615-8.537-36.033-7.245-15.833-17.91-29.002-32.127-39.061-15.489-10.96-32.715-17.824-51.824-17.828-615.664-.1-1231.329-.104-1846.993.11-9.575.004-19.45 1.91-28.66 4.678-17.392 5.225-31.878 15.303-43.666 29.352-14.327 17.074-22.636 36.47-23.088 58.78C22.664 137.16 23 158.332 23 180.5" fill="url(#a)"/><path d="M767.208 183.908c10.25 6.49 18.837 14.026 24.523 24.845v3.45l5.929-1.725c15.313-3.708 28.248-2.069 42.373 5.175 8.983 6.559 15.564 15.264 18.976 25.876q.592 5.115 1.079 10.244c1.233 9.145 3.91 12.88 10.888 18.868l4.577 3.436c6.135 5.429 8.962 10.804 9.899 18.95l-.135 4.784-.08 4.811c-.317 4.013-1.05 7.489-2.076 11.362l3.505-.056c5.265-.07 10.529-.115 15.794-.16l5.516-.088 5.34-.033 4.9-.055c5.003.424 8.645 1.908 13.248 3.842 4.966-.347 9.341-1.385 14.056-2.97 10.652-3.553 20.14-4.759 31.334-4.577l4.788.053c29.896.68 52.305 11.167 74.024 31.645a114 114 0 0 1 8.09 10.485c2.847 4.158 5.986 8.033 9.16 11.942 1.26-2.002 1.26-2.002 2.537-4.044 17.596-27.34 41.074-46.212 73.489-53.423 30.983-4.6 63.138-1.932 89.584 16.064 9.66 7.156 17.907 15.564 24.152 25.877v3.45c4.243-4.187 8.418-8.384 12.403-12.818 15.681-17.026 36.072-28.14 59.602-29.104 29.776-.35 53.668 4.089 76.25 25.21 16.37 17.407 19.718 36.68 19.08 59.84h6.9l-1.725-5.176-1.725 3.45c-1.726-1.725-1.726-1.725-1.83-7.87l.104-5.93 1.726 5.175h3.45c.034-1.41.051-2.817.086-4.27.12-6.412.293-12.823.466-19.235l.103-6.717c.07-2.146.121-4.292.19-6.504l.138-5.967c1.415-10.625 6.435-17.79 14.543-24.586 7.228-2.928 13.352-3.892 21.132-3.91l6.107-.011 6.297.04 6.279-.04c10.471.022 19.304.536 29.189 3.92 8.021-.49 13.628-3.284 20.7-6.9 9.04-2.761 20.823-3.881 29.638-.12 3.468 1.954 3.468 1.954 6.452 3.955 5.4 2.014 10.023.45 15.664-.384 7.366-.35 14.715-.394 22.081-.414 3.45-.018 6.9-.071 10.35-.125 12.007-.048 21.72.88 33.036 4.824 5.538 1.39 8.712-.407 13.577-3.098 18.769-8.307 44.18-7.838 63.553-1.248 23.081 10.194 37.09 25.25 47.164 48.363 6.71 20.684 5.468 44.43 5.537 65.911v3.635q.052 9.486.052 18.973.026 9.73.104 19.459.051 7.558.051 15.117c0 2.393.018 4.784.035 7.175.259 28.4.259 28.4-8.039 37.943-14.819 13.475-37.624 11.215-56.394 11.198-11.834-.571-19.89-2.748-28.74-10.815-5.227-6.76-6.193-13.424-6.245-21.796-.034-2.01-.051-4.02-.069-6.09-.017-2.155-.034-4.31-.034-6.53-.035-3.401-.086-6.802-.12-10.203a8112 8112 0 0 1-.173-21.502c-.052-5.907-.104-11.814-.173-17.72q-.077-6.639-.103-13.277c-.018-2.01-.052-4.02-.07-6.09a548 548 0 0 1-.034-5.34c-.483-5.074-1.794-8.862-3.916-13.47h-8.625c-2.899 6.338-3.882 11.303-3.916 18.253l-.052 5.724c0 2.026 0 4.053-.017 6.138-.035 4.311-.087 8.624-.121 12.935-.052 6.78-.086 13.56-.12 20.339-.053 6.555-.122 13.11-.19 19.666v6.105c-.139 12.273-.45 23.938-9.213 33.424-1.742 1.177-1.742 1.177-3.502 2.379l-3.502 2.472c-9.815 5.444-21.287 4.118-32.19 4.182-2.363.02-4.71.055-7.073.107-26.653.578-26.653.578-38.435-7.517-7.832-9.205-8.798-17.554-8.97-29.299l-.104-6.172c-.035-2.182-.07-4.363-.086-6.61a963 963 0 0 0-.121-6.81l-.259-17.858c-.086-6.083-.172-12.165-.276-18.248-.19-11.92-.362-23.84-.535-35.76-2.484.23-4.95.473-7.435.721l-4.192.406c-5.192.797-8.47 2.463-12.524 5.774-3.191 5.196-3.882 9.14-3.916 15.196l-.052 4.975c0 1.765 0 3.53-.017 5.348-.035 3.76-.086 7.518-.12 11.277-.053 5.909-.087 11.819-.122 17.727-.051 5.714-.12 11.43-.19 17.143v5.294c-.172 12.973-1.638 24.52-9.815 34.956-13.214 10.223-25.583 9.634-41.834 9.488l-6.745.06c-14.301-.043-23.91-.597-35.192-9.87-7.746-9.524-7.694-18.773-7.228-30.515-17.182 2.036-17.182 2.036-31.104 10.896-2.018 4.361-3.622 8.691-5.123 13.256-7.711 11.97-19.235 17.48-32.777 20.701-19.477 1.811-35.106-.041-50.563-12.398-6.745-6.328-11.385-13.597-14.991-22.104v-3.45l-5.175 1.725c-13.611.695-26.619.813-39.678-3.45-.948 1.125-1.914 2.251-2.898 3.41-20.58 23.562-42.972 34.492-74.076 37.56-31.88 1.893-60.568-7.446-85.495-27.385-9.592-8.803-18.028-20.932-23.841-32.561-1.277 2-1.277 2-2.588 4.043-17.113 26.232-36.83 46.443-68.193 54.172-18.064 3.395-35.342 1.078-53.421-1.287l.053 2.948c.073 4.48.117 8.96.162 13.44l.088 4.638c.164 22.333.164 22.333-6.867 31.205l-3.571 2.865-3.545 2.957c-3.561 2.319-6.318 3.316-10.472 4.05v3.45l3.76-.082c37.122-.704 68.983-.324 97.464 26.829 9.885 10.63 17.89 22.574 24.703 35.357.639-1.254 1.26-2.508 1.915-3.8 14.888-27.653 36.452-45.39 66.313-54.886 25.428-7.223 53.685-5.55 78.406 3.483l3.864 1.329c12.352 5.185 22.444 15.772 32.363 24.548.293-1.146.586-2.291.897-3.471 4.399-16.014 4.399-16.014 11.179-22.406 6.9-3.918 12.903-3.55 20.7-3.45l.139-5.236c.552-14.377 1.19-24.874 11.403-35.842 12.696-6.523 27.98-6.55 41.937-7.225l6.331-.343c22.582-.702 22.582-.702 31.621 7.244 8.453 9.645 7.85 22.18 8.16 34.333.241 2.646.241 2.646.466 5.344 4.76 2.377 8.936 2.053 14.232 2.265 9.195.668 15.163 1.435 21.995 8.085 5.624 8.419 6.986 17.786 8.625 27.602h3.45a198 198 0 0 0 6.797-7.87c15.958-17.99 38.246-28.999 62.207-31.807 32.07-1.784 63.38-1.035 88.912 21.296 5.693 5.322 11.023 10.948 16.32 16.656 1.725 1.734 3.432 3.464 5.175 5.175a543 543 0 0 1 1.414-9.81c.26-1.822.518-3.644.777-5.52 2.536-10.776 8.177-16.293 16.785-22.622 9.505-3.293 20.287-2.115 30.19-2.156l6.365-.107c10.523-.045 19.77.533 29.93 3.402 7.487 2.113 7.487 2.113 15.13.93 1.466-.861 2.915-1.72 4.433-2.607 12.317-6.022 25.462-7.544 38.746-3.371 7.556 3.888 11.592 9.264 14.18 17.213 1.725 8.926 1.225 18.222 1.277 27.295q.025 3.805.103 7.607c.57 28.508.57 28.508-7.521 38.05-8.712 7.63-18.131 9.033-29.155 11.078-7.728 1.592-12.472 2.991-17.423 9.622-1.708 5.158-1.932 8.553-1.932 13.937-.017 1.786-.017 3.571-.017 5.41-.018 2.897-.018 2.897-.018 5.85l-.103 12.26c-.052 6.444-.086 12.885-.086 19.328 0 6.22-.07 12.437-.121 18.656 0 1.911.017 3.824.034 5.794-.19 11.73-1.777 20.287-9.833 29.172-12.162 9.546-25.514 8.94-40.212 8.95l-5.261.063c-14.595.028-27.43-.967-39.057-10.738-5.882-7.568-7.849-14.703-8.625-24.152-.897.982-1.794 1.962-2.726 2.973-19.373 20.318-44.128 33.38-72.558 35.285-43.61.947-43.61.947-62.724-7.206-1.622-.692-3.243-1.384-4.934-2.096-16.958-8.267-31.69-21.588-41.644-37.581-.19 1.623-.38 3.246-.57 4.92a1735 1735 0 0 0-.827 6.508c-.259 2.122-.518 4.244-.794 6.43-1.656 8.275-4.295 14.377-10.092 20.525-13.3 8.094-29.378 7.049-44.42 7.01l-6.298.082c-23.012.014-41.281-5.194-59.05-20.137-16.647-19.892-20.114-37.248-20.477-62.966-.086-4.434-.19-8.865-.293-13.296-.034-2.912-.034-2.912-.086-5.882-.31-9.673-.31-9.673-5.451-17.374-.207 2.99-.207 2.99-.432 6.038-1.38 10.689-5.21 19.544-13.576 26.524l-4.969 3.665-3.45 3.45c.725.937 1.467 1.872 2.208 2.838a710 710 0 0 1 2.864 3.74c1.415 1.83 1.415 1.83 2.846 3.7 4.693 6.787 4.83 12.723 4.158 20.774-4.968 16.79-20.425 27.359-35.02 35.58-31.172 15.878-65.519 20.33-99.383 10.977-28.24-9.267-47.302-26.093-62.897-51.031-2.415-4.31-2.415-4.31-6.262-5.876-.12.96-.259 1.922-.38 2.912-3.087 17.886-14.697 29.618-28.947 40.215-29.863 18.625-64.404 21.91-98.325 15.526-28.099-6.738-50.192-22.505-65.77-46.793a483 483 0 0 1-4.96-8.41l-.196 5.614q-.169 3.715-.343 7.433l-.117 3.681c-.552 10.901-3.075 19.077-10.125 27.693-12.764 10.442-25.028 9.852-40.971 9.704l-6.51.06c-14.197-.044-24.156-.319-34.57-10.733-5.738-8.362-7.64-15.821-7.746-25.887l-.088-5.862-.043-6.259-.09-6.495q-.112-8.518-.193-17.037-.12-11.996-.28-23.989-.082-6.376-.139-12.752l-.07-5.863-.049-5.13c-.266-5.192-1.028-10.148-1.975-15.258h-10.35c-1.27 16.147-1.891 32.23-2.09 48.424l-.074 5.538c-.1 7.595-.195 15.192-.255 22.79a2495 2495 0 0 1-.21 16.849l-.018 5.179c-.162 9.172-.775 15.815-5.98 23.702-13.276 12.699-24.346 12.663-41.942 12.616l-6.263.083c-24.618.014-24.618.014-33.759-8.12-7.504-8.422-9.881-16.163-9.988-27.238l-.088-6.35-.043-6.807q-.042-3.507-.09-7.016-.114-9.207-.193-18.415a8871 8871 0 0 0-.325-29.53q-.057-5.159-.095-10.315l-.07-6.3-.049-5.562c.038-4.344.038-4.344-1.975-7.803h-8.625c-2.284 4.567-1.965 8.038-1.998 13.153l-.053 6.16-.038 6.692-.11 10.378q-.139 12.814-.22 25.63-.043 7.18-.128 14.36a1473 1473 0 0 0-.1 13.522c-.172 12.514-.436 22.522-8.763 32.46l-2.931 2.393-2.891 2.458c-11.441 7.176-23.898 6.202-36.893 6.167l-6.24.083c-24.534.014-24.534.014-33.676-8.12-9.146-10.266-9.981-19.047-9.465-32.18l-3.093 1.827-4.132 2.379-4.063 2.365c-13.112 6.357-28.23 3.864-42.19 2.054l-1.78 2.973c-10.327 16.452-22.867 27.094-41.348 33.254-21.8 1.42-38.13.49-55.634-13.8-12.978-12.426-19.675-26.967-20.27-44.853l-4.853.431c-14.98-.12-27.764-7.02-38.37-17.19-13.32-15.647-14.6-32.465-13.706-52.245 1.736-16.07 9.133-29.55 20.91-40.54 9.76-7.79 20.427-10.802 32.569-12.938l1.085-4.36c5.57-20.352 15.213-34.562 33.417-45.668 23.633-10.815 51.46-12.68 76.025-3.888 21.056 9.012 34.248 21.695 43.162 42.905 2.975 7.792 3.502 14.294 3.402 22.548l-.023 3.67q-.034 4.471-.084 8.944l4.744 1.51a91.4 91.4 0 0 1 12.507 5.39l.076-5.005c.1-6.187.234-12.373.376-18.56q.086-3.998.145-7.998c.493-32.51.493-32.51 8.561-41.751 12.078-11.051 26.17-10.07 41.516-10.028l6.24-.085c11.734-.007 20.337 1.106 31.066 5.798 8.128-.29 14.867-2.529 22.27-5.66 18.998-6.533 41.817-3.874 60.535 2.21a114 114 0 0 1 13.483 8.605c3.762 2.237 3.762 2.237 7.992.58l4.401-2.285 4.447-2.102 4.61-2.21c23.946-10.796 50.504-10.756 75.473-2.588 5.86 2.791 10.594 6.15 15.526 10.35l3.97 3.277c11.62 10.507 17.299 22.317 23.631 36.401a514 514 0 0 0 3.45 6.9l1.598-3.046c13.737-24.612 35.377-45.814 62.231-55.607 4.819-.223 4.819-.223 8.626 0l-1.725-3.45-8.626 1.725v-3.45l-5.87.12c-36.488.539-36.488.539-49.333-10.47-4.363-7.315-5.83-12.76-5.895-21.235l-.086-6.42-.017-6.862a3235 3235 0 0 0-.081-7.099 3193 3193 0 0 1-.152-18.625c-.06-9.947-.166-19.894-.273-29.843-.032-3.466-.051-6.933-.07-10.4l-.056-6.387-.032-5.617c-.207-4.197-.754-7.714-1.963-11.72l-1.344 5.901q-2.497 10.95-5.007 21.895-1.078 4.719-2.152 9.437c-11.87 52.167-11.87 52.167-29.665 64.98-53.385 26.459-140.856 21.204-196.446 4.743-13.45-5.32-21.581-12.464-27.602-25.876a178 178 0 0 1-2.696-11.555l-.681-3.354c-.737-3.64-1.453-7.283-2.169-10.927q-.774-3.859-1.552-7.714-2.041-10.161-4.051-20.329c-1.344-6.772-2.705-13.544-4.064-20.315-8.23-41.05-8.23-41.05-11.115-56.226l-.954-4.947a1152 1152 0 0 1-1.634-8.703c-1.276-7.192-1.276-7.192-5.586-12.915l-1.84 4.738c-5.4 13.326-11.093 23.985-20.586 34.94l-3.128 4.528c-19.309 20.964-48.615 29.618-76.227 31.699-5.789.18-11.568.165-17.36.109l-4.524-.025q-5.446-.034-10.892-.084l.053 3.265c.072 4.95.117 9.9.162 14.848l.088 5.136c.098 14.91-.816 26.89-11.389 38.154-14.42 12.881-43.685 8.296-61.596 7.421-10.851-.77-20.688-2.12-28.37-10.386-9.003-11.862-8.365-26.798-8.273-40.994l-.02-6.604c-.015-5.934 0-11.868.025-17.803.019-6.238.012-12.476.009-18.714q0-15.71.05-31.422c.036-12.07.041-24.143.03-36.215q-.011-17.488.02-34.975.012-7.41.007-14.82c-.006-6.914.02-13.83.048-20.745l-.012-6.14c.196-30.634.196-30.634 10.795-43.103 13.284-9.667 28.56-8.477 44.206-8.403q3.945-.005 7.89-.015 8.252-.009 16.503.028c6.983.029 13.965.012 20.948-.02 5.432-.018 10.863-.011 16.295.002q3.856.005 7.711-.013c33.355-.123 62.157 6.874 88.326 28.307l3.382 2.722c15.333 13.737 23.952 35.394 31.12 54.206l1.838-2.776c4.34-6.212 7.908-11.225 14.766-14.69 6.702-3.723 8.679-7.194 12.722-13.586 9.742-9.52 19.67-13.073 32.777-15.526l.135-3.545c1.297-21.294 8.135-35.458 24.017-49.933 10.914-8.43 24.643-8.929 37.952-10.35l1.023-3.228c6.193-17.536 16.505-28.526 32.46-37.845 17.445-8.024 41.691-9.483 59.301-1.023m-355 168.028v25.876c11.935.442 20.572.747 31.052-5.175 2.174-4.347 1.584-6.648.97-11.429l-.532-4.271-.438-3.276c-11.2-5.486-19.307-7.597-31.051-1.725M921.113 607.25l-1.725 3.45h3.45zm338.114 93.155 1.726 13.8 5.175-5.174-3.45-3.45zm105.232 1.725c-.483 7.032-.397 14.086-.432 21.133l-.103 5.99c0 1.91-.017 3.82-.017 5.789l-.052 5.304c.707 5.716 2.329 8.964 5.779 13.537 4.33 1.04 4.33 1.04 8.953.54l4.71-.236 3.588-.304c3.623-5.96 3.968-10.854 4.175-17.763.086-3.12.086-3.12.19-6.3l.172-6.557c.069-2.191.12-4.38.19-6.639.172-5.406.327-10.812.448-16.219-4.278-.046-8.556-.081-12.817-.107l-3.71-.045c-6.037-.595-6.037-.595-11.074 1.877m-322.594 63.829 1.725 3.45zm1.725 3.45 1.725 5.175zm1.725 5.175 1.725 6.9 1.725-3.45z" fill="#493513"/><path d="m977.286 329.078 4.977-.107c22.512-.122 41.816 8.158 58.48 23.301 23.583 25.763 26.377 56.804 25.515 89.928-1.242 24.948-14.129 47.385-31.294 64.995-16.509 14.122-37.693 21.388-59.269 21.065-15.626-1.249-30.379-8.294-42.135-18.584-2.096-2.481-2.096-2.481-2.096-5.931h-3.45l1.725 3.45a109 109 0 0 1 .305 7.12l.067 4.448.038 4.813.041 4.938q.037 5.175.057 10.35c.03 5.286.106 10.57.182 15.856q.025 5.021.044 10.043l.092 4.803c-.038 10.783-.038 10.783-3.585 15.391-5.501 2.115-10.057 2.264-15.955 2.28l-3.414.015q-3.56.005-7.122-.028c-3.63-.028-7.259 0-10.89.033q-3.464-.005-6.93-.02l-6.355-.018c-5.229-.67-5.229-.67-8.103-2.684-3.224-4.425-2.953-7.534-2.958-12.982l-.045-6.202.032-6.81q-.012-3.585-.027-7.166a3009 3009 0 0 1 .002-19.472c.012-6.788 0-13.574-.007-20.363q-.014-17.097.027-34.195a8992 8992 0 0 0-.01-39.554 11129 11129 0 0 1-.014-33.94q.017-10.14-.007-20.28-.022-9.531.026-19.064c.009-3.45-.007-6.899-.022-10.35l.045-6.2.005-5.4c.652-4.422.652-4.422 2.957-7.515 8.14-5.905 18.955-4.194 28.531-4.239l5.695-.107 5.504-.027 5.02-.048c5.58.73 8.791 2.506 13.323 5.789 2.264 3.775 2.264 3.775 3.45 6.9l5.102-2.58 6.65-3.349 3.36-1.702c11.493-5.776 19.794-6.533 32.436-6.6m-176.77 308.266c15.797 12.883 24.152 29.168 27.442 49.26.174 4.203.255 8.41.277 12.616l.026 3.752q.035 6.109.047 12.217l.03 8.514q.025 8.903.034 17.81c.008 7.612.051 15.225.1 22.838.032 5.853.041 11.708.043 17.563q.007 4.211.043 8.422c.03 3.92.026 7.837.014 11.757l.019 6.759c-.633 5.41-.633 5.41-3.045 8.65-8.358 5.851-18.578 4.05-28.425 4.091l-6.26.109-6.017.026-5.519.05c-5.687-.723-7.704-1.77-11.746-5.791-.86-4.579-.86-4.579-.86-10.16l-.052-6.336.043-6.86q-.021-3.53-.05-7.061c-.045-6.205-.056-12.409-.054-18.614.005-9.893-.02-19.787-.095-29.682-.017-3.436-.001-6.873.016-10.31-.067-11.744-.299-22.845-5.848-33.46-6.205-6.053-10.813-8.88-19.408-9.056-7.445.131-12.365 1.15-18.544 5.606-7.838 9.947-8.838 20.619-8.843 33.02l-.021 6.228-.005 6.65q-.049 6.99-.1 13.979c-.054 7.337-.093 14.674-.09 22.012q.003 7.197-.067 14.394a909 909 0 0 0-.03 13.548l-.086 6.177-.019 5.443c-1.09 4.482-1.09 4.482-5.18 7.65-5.103 2.257-8.631 2.65-14.193 2.633l-5.482-.003-5.67-.083-5.692.016c-15.736-.106-15.736-.106-21.801-4.006-2.34-4.679-1.953-8.362-1.97-13.6l-.037-6.458-.01-3.462a2030 2030 0 0 0-.07-10.753c-.092-10.19-.175-20.382-.2-30.574a2180 2180 0 0 0-.14-18.701 650 650 0 0 1-.028-7.103c.019-14.794-.207-26.552-10.392-38.116-4.94-4.316-10.095-4.383-16.373-4.497l-4.468-.135c-5.084.675-7.26 2.536-11.165 5.741h-3.45c-5.543 13.553-5.91 25.66-5.878 40.197q-.024 3.536-.055 7.078c-.074 8.686-.093 17.372-.115 26.058q-.028 11.065-.128 22.128c-.024 3.443-.016 6.886-.009 10.331l-.051 6.335-.012 5.57c-.739 5.412-2.096 7.765-5.828 11.686-8.653 3.476-19.297 2.187-28.464 2.265l-5.964.15-5.736.045-5.232.076c-6.02-1.054-7.99-2.77-11.532-7.711-.811-4.606-.811-4.606-.735-9.806l.043-5.71.152-5.94.052-5.92c.113-8.4.524-16.147 2.213-24.377q.22-3.692.23-7.392l.005-4.068-.02-4.173.02-4.196-.006-4.06-.007-3.666c-.103-3.475-.103-3.475-1.081-6.628-.971-4.225-1.111-8.027-1.144-12.36l-.05-5.165-.022-5.543-.031-5.724q-.025-5.986-.033-11.97c-.017-6.11-.07-12.221-.126-18.331q-.017-5.818-.026-11.631l-.066-5.545.016-5.163-.019-4.535c.778-4.98 2.334-7.346 5.81-10.958 4.911-.894 4.911-.894 10.829-.916l6.458-.028 6.756.082 6.736-.082 6.466.028 5.922.022c6.252 1.089 8.272 2.762 12.036 7.794 1.294 6.47 1.294 6.47 1.725 12.076l3.544-3.153c20.06-17.225 35.652-21.354 61.682-19.65 14.71 1.469 24.133 7.255 34.035 17.964 2.52 3.114 2.52 3.114 4.245 6.564 5.776-2.518 9.61-5.775 14.124-10.135 22.342-20.278 57.715-21.888 82.642-4.623" fill="#fcd24c"/><path d="m344.557 268.462 6.095-.05 6.588.032 6.838-.015q7.185-.009 14.37.028c6.05.029 12.1.012 18.152-.018 41.695-.176 79.972.093 112.281 29.803 15.958 16.872 23.062 38.182 22.898 61.026l-.03 4.36c-.464 23.786-7.576 45.67-24.229 63.134-31.574 29.492-71.85 27.541-112.562 28.68l-.076 5.275c-.1 6.47-.235 12.937-.378 19.406a1359 1359 0 0 0-.145 8.392 1225 1225 0 0 1-.245 12.076l-.033 3.78c-.153 5.289-.57 9.198-3.06 13.911-8.413 7.704-23.286 4.827-33.909 4.87l-6.667.109-6.426.026-5.862.05c-5.974-.694-9.19-2.13-13.929-5.792-1.764-5.292-1.95-8.906-1.968-14.449l-.03-5.834-.004-6.404-.026-6.742q-.035-9.158-.042-18.317-.008-5.722-.02-11.444-.037-17.905-.047-35.81-.012-20.666-.088-41.333-.055-15.976-.057-31.952 0-9.542-.043-19.083c-.035-7.096-.026-14.191-.016-21.286l-.048-6.383.03-5.864-.007-5.082c.96-6.933 4.02-11.498 8.967-16.34 4.83-2.693 8.206-2.748 13.728-2.76m67.652 83.474v25.876c11.934.442 20.571.747 31.051-5.175 2.174-4.347 1.584-6.648.97-11.429l-.532-4.271-.438-3.276c-11.2-5.486-19.307-7.597-31.051-1.725" fill="#fbd14b"/><path d="M760.679 201.852c8.166 5.345 14.166 11.27 17.25 20.701 1.213 14.826 1.213 14.826-1.724 20.702 8.216-3.252 15.4-7.06 22.776-11.928 6.76-4.085 12.62-4.231 20.351-3.598 9.831 2.929 16.031 7.894 20.964 16.887 2.963 7.73 3.14 15.017.134 22.762-3.262 6.085-7.345 10.975-12.472 15.554l4.204-.863c19.797-2.779 19.797-2.779 28.573 2.588 4.28 5.165 5.161 7.908 5.282 14.663-2.264 7.456-5.678 10.803-12.183 14.664-13.51 7.066-26.79 5.937-41.402 3.45 4.871 11.237 9.464 17.197 20.72 22.305 3.431 1.846 3.431 1.846 6.881 7.022.799 7.198.775 10.845-3.127 17.035-3.773 3.666-3.773 3.666-8.948 5.39-3.63-.103-7.26-.211-10.886-.373-14.925-1.132-14.925-1.132-27.713 5.334l-2.305 2.789c-3.863 4.518-7.69 5.883-13.525 6.57-15.416.066-25.695-4.881-38.727-12.594l-1.78 2.4c-7.504 9.501-14.693 15.356-26.867 17.29-13.704.735-24.762-3.62-35.337-12.298l-3.295-2.217c-5.027 1.206-9.194 2.873-13.8 5.176a162 162 0 0 1-10.028.43l-5.424.135c-7.687-.828-12.19-3.648-17.003-9.622-3.783-3.75-3.783-3.75-9.973-2.38l-3.72.558c-6.283.856-12.535.982-18.868 1.068l-3.83.15c-6.324.074-10.154-.481-15.645-3.709-3.776-4.2-4.706-5.765-4.676-11.32.452-7.835 3.143-12.145 8.558-17.677 4.99-4.165 10.14-7.661 16.78-7.661l.215-4.636c2.015-7.632 5.45-9.941 11.86-14.34 3.342-1.401 3.342-1.401 6.9-1.726l5.714-.862c8.069 1.094 10.023 3.956 15.292 9.792 6.124 6.125 13.355 9.58 21.907 10.693 4.028-.35 4.028-.35 7.116-4.097 1.107-3.569 1.107-3.569 1.725-6.9l-4.422-.216c-9.705-2.47-15.76-8.154-20.903-16.643-4.233-10.346-4.274-22.856-1.145-33.607 4.96-9.555 14.762-17.998 24.745-21.988 13.352-1.64 23.083-.126 34.502 6.9l-.304-4.299c-.628-15.526 1.47-26.408 11.524-38.499 15.408-14.887 36.993-17.948 56.059-8.955" fill="#feec93"/><path d="M451.211 629.144c15.328 8.39 24.623 18.043 30.002 35.035 1.825 13.175.467 24.234-5.176 36.227l2.91.074c13.289.83 21.24 5.807 31.16 14.374 11.799 13.764 13.86 26.644 12.906 44.216-1.164 10.045-6.208 17.722-13.014 24.896-10.038 5.836-18.372 9.099-30.108 7.258-10.099-2.914-18.365-9.96-26.28-16.639l-.135 3.666c-.995 16.65-5.24 27.177-17.466 38.646-9.497 7.784-19.913 10.157-32.01 9.907-11.138-1.34-20.256-5.63-27.912-13.835-7.437-9.473-11.525-19.099-11.09-31.356.978-5.525 3.284-10.224 5.855-15.18 2.013-4.708 2.715-9.22 3.403-14.274l-3.652 2.58c-1.571 1.107-3.141 2.21-4.758 3.351l-4.73 3.335c-9.319 6.37-18.97 5.489-29.987 4.535-9.659-4.484-16.922-12.124-20.91-22.076-3.883-14.15-2.88-28.675 3.659-41.753 5.28-8.732 12.878-13.935 22.426-17.25 9.876-1.03 19.74-1.108 29.327 1.724l-1.725-5.175c-1.553-14.567.098-25.864 8.625-37.952 18.405-21.191 53.74-25.387 78.68-14.334" fill="#fde88a"/><path d="M1005.638 641.753c16.37 13.164 24.686 30.41 31.052 50.028l1.725 5.175c.448 6.605.396 13.22.43 19.839.035 1.825.07 3.652.122 5.532 0 2.626 0 2.626.017 5.303l.052 4.856c-.621 4.147-.621 4.147-2.536 6.957-4.83 3.51-8.677 2.987-14.612 2.954l-3.467.001a1136 1136 0 0 1-11.351-.084q-3.934-.016-7.867-.022c-6.893-.02-13.794-.071-20.692-.128-7.044-.054-14.086-.076-21.128-.102q-20.723-.088-41.445-.254l1.556 6.55.876 3.686c1.993 6.984 5.024 11.9 11.03 16.086 12.566 6.581 26.467 6.845 40.07 3.409 7.226-2.502 13.807-5.467 20.323-9.46 6.288-3.453 8.84-4.593 15.845-3.02 5.072 3.565 9.384 7.74 13.8 12.076l3.244 2.803c2.898 2.588 2.898 2.588 7.107 7.548-.69 10.083-6.693 15.82-13.8 22.426-26.262 20.085-54.22 22.837-86.25 20.701-7.927-1.14-15.13-3.622-22.427-6.9l-4.185-1.832c-25.276-12.573-38.418-34.499-47.568-60.272-5.225-22.248-5.192-51.913 5.176-72.454l2.216-4.825c12.012-24.226 30.852-39.394 55.77-49.124 28.852-8.784 62.075-4.106 86.917 12.547m496.397-16.064 5.124.029c19.821.333 34.191 4.665 50.51 16.035l3.347 2.304c17.493 13.482 25.687 35.224 29.43 56.35.45 6.106.484 12.208.553 18.328l.138 4.988.051 4.783c.018 1.436.052 2.873.07 4.35-.811 3.777-.811 3.777-3.606 6.565-5.348 3.119-9.005 3.01-15.18 2.976l-6.798-.002-7.331-.081q-3.753-.016-7.505-.022c-6.59-.02-13.162-.071-19.735-.128-6.728-.054-13.438-.076-20.166-.102a10083 10083 0 0 1-39.522-.254c.483 2.488.983 4.972 1.483 7.453.414 2.075.414 2.075.846 4.194 2.311 7.966 8.056 11.52 14.922 15.524 15.543 6.474 29.516 4.59 45.094-.896 5.779-2.485 10.661-5.563 15.612-9.441 3.122-1.308 3.122-1.308 7.142-.37 5.814 3.172 10.678 7.075 15.612 11.462a336 336 0 0 0 2.916 2.388c2.725 2.43 2.725 2.43 6.78 7.639.085 10.197-3.106 15.343-9.886 22.454-20.373 17.844-43.645 22.947-69.9 23.154l-5.262.053c-23.496-.277-44.439-8.815-61.586-24.96-19.805-22.9-28.81-49.593-28.085-79.758 2.14-28.24 11.403-52.835 32.139-72.436 18.458-15.664 38.78-22.723 62.793-22.58m-298.01 14.34c18.993 14.277 31.224 33.215 35.726 56.73 1.018 7.342 1.19 14.684 1.26 22.086l.051 4.568c-.034 2.125-.034 2.125-.052 4.292l-.051 3.833c-.897 4.294-2.519 5.81-5.883 8.546-4.847 2.426-8.867 1.932-14.284 1.922h-3.364c-3.691-.002-7.366-.014-11.04-.027l-7.643-.01q-10.066-.01-20.131-.04c-6.85-.018-13.698-.026-20.53-.035q-20.157-.03-40.315-.085a864 864 0 0 0 2.364 6.55c.43 1.217.88 2.433 1.328 3.686 3.57 8.572 9.108 13.86 17.234 18.013 15.215 6.022 31.431 3.43 46.353-2.372a102 102 0 0 0 10.61-6.921c4.571-2.443 6.658-2.693 11.816-1.705 4.693 3.025 8.66 6.661 12.732 10.46 1.121.968 2.26 1.935 3.415 2.934 3.123 2.874 5.693 5.476 8.005 9.033.155 6.393-.466 10.035-3.795 15.472-22.65 21.59-47.906 28.716-78.337 28.345-28.93-.854-50.373-10.43-70.557-31.553-19.407-24.283-23.34-52.871-21.546-82.993 3.536-27.956 17.268-49.478 38.935-67.064 30.397-22.362 76.043-25.907 107.698-3.665m536.73-304.265c16.458 13.592 25.636 29.456 29.103 50.675a351 351 0 0 1 .31 12.774c.018 1.254.018 2.51.035 3.802.035 4.13.052 8.258.07 12.387 0 1.412.016 2.825.016 4.281.035 7.468.07 14.934.087 22.4a3435 3435 0 0 0 .138 23.152c.051 5.934.069 11.868.069 17.803.017 2.846.034 5.692.069 8.539.034 3.973.034 7.944.017 11.917.017 2.261.017 4.521.034 6.852-.845 5.475-.845 5.475-4.105 8.76-9.195 4.785-19.39 3.931-29.517 3.94l-4.64.064c-14.646.033-14.646.033-21.236-3.838-4.003-6.024-3.882-8.403-3.882-15.521-.017-2.13-.034-4.261-.034-6.457v-3.45q0-5.365-.052-10.73c-.086-10.17-.12-20.34-.138-30.509 0-6.224-.052-12.45-.104-18.674-.017-2.364-.034-4.725-.017-7.087.052-13.521-.155-23.83-7.85-35.23-8.055-4.866-14.8-6.212-24.15-5.175-4.762 2.429-4.762 2.429-8.626 5.175h-3.45a451 451 0 0 0-3.45 6.9c-.88 1.601-1.76 3.202-2.657 4.852-4.106 9.677-3.278 20.095-3.278 30.425l-.103 10.2a1951 1951 0 0 0-.086 14.209c-.035 8.31-.087 16.62-.173 24.927-.052 4.418-.069 8.836-.086 13.254l-.052 6.055c0 1.756-.017 3.513-.017 5.322-.449 4.73-1.311 7.551-3.899 11.514-7.418 3.709-17.303 2.116-25.531 2.139-3.658.017-7.332.07-10.99.126-2.328.01-4.64.019-6.969.026l-6.417.05c-5.296-.616-5.296-.616-8.16-2.785-2.863-3.73-2.967-5.667-2.984-10.328a412 412 0 0 0-.07-4.521c.018-1.632.018-3.264.018-4.946-.017-1.724-.017-3.445-.034-5.22-.052-5.709-.052-11.415-.052-17.124 0-3.959-.018-7.918-.035-11.879-.017-8.304-.017-16.61-.017-24.915a3959 3959 0 0 0-.104-31.958c-.051-8.18-.051-16.359-.051-24.538q0-5.894-.052-11.786a1310 1310 0 0 1 .017-16.464 453 453 0 0 1-.069-4.935c.138-10.991.138-10.991 5.193-16.536 5.486-2.934 9.143-3.332 15.353-3.358l6.193-.028 6.418.081 6.434-.08 6.176.027 5.641.022c6.038 1.096 8.09 3.017 11.817 7.794.88 4.798.328 8.877 0 13.8h3.45v-3.45c25.014-22.298 55.79-28.674 86.48-12.722" fill="#fcd24c"/><path d="M1386.109 339.072c11.696 8.356 20.131 19.349 23.202 33.565 1.484 14.068-1.31 25.068-6.9 37.952l3.226.014c12.23.559 20.546 3.668 29.55 12.062 8.557 9.923 9.8 19.794 9.23 32.622-1.121 9.897-3.278 17.484-11.058 24.2-8.988 6.315-16.63 6.863-27.498 5.282-5.727-2.82-10.61-6.276-15.526-10.351.276 1.23.552 2.46.845 3.726 1.794 9.95 2.157 19.916-.948 29.59-6.642 9.221-14.405 16.117-25.773 18.437-11.248 1.106-19.701-.816-29.327-6.9-10.385-9.368-12.076-16.91-13.042-30.62-.138-2.02-.293-4.04-.431-6.12-.104-1.539-.207-3.077-.328-4.663l-3.52 2.203c-1.552.945-3.087 1.89-4.674 2.866l-4.606 2.85c-10.247 5.608-22.979 6.161-34.209 3.1-10.661-4.73-18.752-13.07-23.893-23.505-5.365-14.541-4.537-28.675 1.898-42.717 8.022-12.278 17.113-18.338 31.052-22.426l-1.725-4.851c-3.33-12.093-3.485-23.72 1.725-35.258 9.022-15.91 23.858-24.857 41.23-29.834 20.287-4.4 43.783-1.94 61.5 8.776" fill="#feea8f"/><path d="M1229.952 338.903c6.487 5.234 11.714 10.682 15.475 18.208 0 8.615-2.933 12.747-8.626 18.976-4.71 3.842-9.66 7.318-14.663 10.782-1.311.933-2.622 1.868-3.968 2.831-11.73 8.22-11.73 8.22-17.596 8.814-2.64-2.08-5.262-4.173-7.78-6.416-6.694-5.752-14.129-6.52-22.668-6.32-9.178 1.497-15.698 7.029-21.943 13.598-7.35 11.301-7.539 22.19-6.262 35.365 3.243 11.515 10.35 18.319 20.477 24.34 8.504 3.553 18.717 2.902 27.308-.075a155 155 0 0 0 8.315-3.949c6.314-1.973 9.988-1.444 16.354.385 4.727 3.481 8.625 7.568 12.628 11.86 1.07 1.1 2.121 2.201 3.226 3.336 11.247 11.69 11.247 11.69 12.73 18.768-1.724 10.15-8.987 16.281-16.819 22.512-21.495 15.03-48.648 18.007-74.231 13.594-26.515-6.347-45.146-20.837-59.464-43.438-14.819-26.812-17.63-60.327-9.816-89.92q1.889-5.504 4.088-10.891c.742-1.8 1.467-3.599 2.226-5.452 9.885-21.774 25.842-37.838 48.13-46.786 30.862-10.603 65.571-9.592 92.88 9.878" fill="#fcd24c"/><path d="m1330.077 582.668 6.521-.135c5.434.566 5.434.566 8.315 2.592 3.157 4.314 3.036 7.399 3.174 12.712.07 1.85.138 3.702.19 5.61.07 2.896.07 2.896.12 5.853.053 1.951.122 3.902.173 5.912.156 4.822.26 9.643.363 14.465l37.952 1.725c3.657 7.294 2.122 16.894 2.156 24.907.035 1.998.07 3.995.121 6.053 0 2.871 0 2.871.017 5.8l.052 5.326c-.725 5.311-1.587 6.474-5.796 9.667-3.916.588-3.916.588-8.419.506l-4.916-.05-5.09-.132-5.175-.07q-6.314-.093-12.627-.254.129 15.564.362 31.124.077 5.291.103 10.582c.035 5.079.121 10.157.207 15.236.018 1.568.018 3.138.018 4.755.224 9.808 1.5 15.315 7.935 22.833 6.52 3.752 12.852 4.026 20.27 4.421 10.61.582 10.61.582 12.507 2.48.448 7.141.328 14.302.328 21.456.017 2.02.034 4.04.069 6.12v5.84c.017 1.779.017 3.556.034 5.388-.431 4.323-.431 4.323-3.881 7.773-9.523 3.352-20.46 2.115-30.397 2.156l-6.451.11c-19.356.08-34.968-2.476-49.407-16.067-14.112-14.334-14.577-35.811-14.68-54.8-.053-3-.053-3-.087-6.06-.104-6.308-.155-12.617-.207-18.926-.07-4.31-.12-8.62-.19-12.93q-.207-15.746-.362-31.49l-5.538-.196-7.176-.343-3.657-.12c-3.502-.184-3.502-.184-9.506-1.067-3.864-5.805-3.881-7.823-3.898-14.617-.018-2.753-.018-2.753-.018-5.562.018-1.916.018-3.831.035-5.804-.017-1.924-.017-3.846-.035-5.826 0-1.834 0-3.668.018-5.557v-5.1c.448-4.112.448-4.112 3.898-7.562a175 175 0 0 1 13.163-1.078l3.692-.202c3.001-.162 6.02-.305 9.022-.445.034-1 .052-2 .086-3.031.12-4.561.293-9.12.466-13.68l.103-4.768c.604-15.07.604-15.07 6.245-21.649 12.524-4.173 26.67-3.65 39.798-3.881" fill="#fbd14c"/><path d="m808.576 391.108 4.651.05 4.811.133 4.893.07q5.963.092 11.927.252c-2.398 22.611-6.514 44.763-10.89 67.063l-3.163 16.242q-1.035 5.322-2.075 10.644a1855 1855 0 0 0-5.544 29.632l-1.137 6.278a1064 1064 0 0 0-1.908 10.935c-1.994 10.925-4.598 19.116-13.789 26.156-22.647 10.334-52.71 11.029-77.076 10.735-.22-39.054.05-78.052 1.405-117.086.25-7.442.37-14.875.395-22.322l.074-5.132q.067-4.479-.01-8.955c.124-5.286.519-9.235 4.188-13.203 5.25-3.974 8.04-5.84 14.756-5.703a219 219 0 0 1 9.88 3.409c14.098 4.22 30.274 3.078 43.492-3.518l3.141-2.658c4.439-2.972 6.697-3.124 11.98-3.022" fill="#d35822"/><path d="M569.193 391.613c38.349-1.72 38.349-1.72 53.478 8.626 11.425 3.809 22.842 2.429 34.07-1.401 8.003-2.483 8.003-2.483 12.749-.533 3.209 2.365 3.209 2.365 5.903 4.872 2.628 2.67 2.628 2.67 7.656 3.962l5.176 162.16c-65.366 0-65.366 0-85.245-17.591-4.638-5.272-5.598-10.801-6.772-17.583l-.863-4.286a935 935 0 0 1-2.634-13.965q-.949-4.874-1.91-9.744c-1.67-8.53-3.28-17.07-4.88-25.614-1.637-8.682-3.33-17.353-5.017-26.025a7323 7323 0 0 1-7.29-38.055l-.756-3.994a852 852 0 0 1-3.665-20.829" fill="#d25721"/><path d="M1728.455 626.227c2.76 1.884 2.76 1.884 5.175 5.175.655 5.415.655 5.415.638 12.022v3.537q0 3.697-.052 7.395c-.034 3.771-.034 7.54-.017 11.312-.086 18.49-.086 18.49-4.02 24.387-4.692.64-4.692.64-10.453.756-13.663.799-23.962 3.409-33.416 13.692-9.263 11.127-8.366 24.108-8.349 37.81l-.104 12.565c-.051 6.588-.069 13.174-.086 19.763-.017 6.369-.069 12.734-.138 19.103.017 1.977.017 3.956.035 5.995-.035 1.83-.052 3.662-.07 5.55-.017 1.611-.017 3.224-.017 4.885-.88 4.089-.88 4.089-4.157 7.165-8.953 5.192-19.425 4.14-29.5 4.148l-4.64.064c-14.646.033-14.646.033-21.236-3.838-3.536-5.305-3.881-6.385-3.898-12.366l-.035-4.433c0-1.601.017-3.2.017-4.85-.017-1.688-.017-3.377-.034-5.118-.017-5.594-.017-11.189-.017-16.785 0-3.883-.018-7.765-.018-11.648q-.026-12.214 0-24.427c0-10.446-.017-20.888-.069-31.333-.017-8.019-.017-16.039-.017-24.059 0-3.85-.017-7.702-.034-11.553-.018-5.38 0-10.76.017-16.143-.017-1.596-.017-3.193-.035-4.837.087-10.71.087-10.71 2.985-16.299 4.571-3.918 8.66-3.295 14.577-3.255l3.433.005c2.398.01 4.778.038 7.176.08 3.657.063 7.315.07 10.989.07 17.941.131 17.941.131 21.892 4.09.724 3.733.724 3.733 1.086 7.979.121 1.41.26 2.82.38 4.273l.259 3.274c1.466-1.164 2.915-2.33 4.433-3.531 30.69-24.264 30.69-24.264 47.32-20.62" fill="#fcd24c"/><path d="M1566.295 326.06c4.675 3.557 5.831 6.417 6.9 12.075.397 7.435.328 14.876.328 22.32.018 2.035.035 4.07.07 6.168v5.954c.017 1.79.017 3.58.034 5.423-.449 5.291-1.294 8.97-3.882 13.613-4.847 1.25-9.074 1.972-14.007 2.48-11.507 1.61-21.65 3.279-29.12 13.046-5.952 10.892-5.934 20.708-5.934 32.953-.018 1.99-.052 3.983-.07 6.036-.068 6.338-.103 12.678-.137 19.018q-.052 9.527-.156 19.055c-.051 3.945-.069 7.89-.086 11.836l-.052 5.427c0 1.57-.017 3.138-.017 4.754-.5 4.933-1.69 8.62-3.899 13.053-7.28 3.641-16.785 2.116-24.79 2.139-3.536.017-7.072.07-10.609.126l-6.745.026-6.21.05c-5.124-.616-5.124-.616-8.367-2.648-2.657-4.346-2.57-7.522-2.553-12.597v-5.658c.034-1.952.052-3.903.086-5.912 0-1.919-.017-3.837-.017-5.814.069-10.696 1.121-19.82 4.002-30.09.604-5.078.604-5.078.552-9.92.017-1.556.052-3.114.086-4.717-.569-5.373-1.656-9.54-3.208-14.67-3.882-14.991-3.502-30.225-3.468-45.613 0-5.222-.069-10.439-.138-15.659-.017-3.336-.017-6.673-.017-10.01-.034-1.552-.052-3.103-.086-4.7.086-7.708.31-10.989 5.158-17.268 8.763-6.466 17.32-5.417 27.757-5.424l4.985-.065 4.813-.01 4.4-.022c4.433.463 7.193 1.446 10.92 3.87 1.431 4.11 1.431 4.11 2.156 8.841.258 1.57.517 3.14.793 4.758.242 1.808.242 1.808.5 3.652.897-1 1.812-2.001 2.743-3.033 11.903-12.64 28.344-27.934 47.285-22.844" fill="#fbd14c"/><path d="m696.85 263.956 5.175 1.725c1.941 6.907 1.551 10.225-1.618 16.604-4.081 9.53-5.129 17.979-3.557 28.248 3.982 8.602 10.295 15.076 18.976 18.977 12.148 2.347 24.045-.48 34.502-6.9 8.34-7.6 16.83-15.944 17.588-27.63l-.121-5.579-.095-5.634-.12-4.285c-5.19-1.73-9.554-2.248-14.989-2.695l-5.194-.438-3.97-.318c.539-4.097.539-4.097 1.726-8.625 7.342-4.894 13.806-4.55 22.426-3.45 6.852 3.488 11.682 7.138 15.526 13.8.367 4.612.492 8.787.323 13.37l-.071 3.645a690 690 0 0 1-.252 8.862l2.91.95q4.135 1.363 8.255 2.762a267 267 0 0 0 8.342 2.655c9.244 2.97 9.244 2.97 12.083 7.974l1.187 4.635c3.459 9.766 8.179 12.66 17.15 16.948 3.551 2.028 3.551 2.028 7.001 7.204.799 7.198.775 10.845-3.127 17.035-3.773 3.666-3.773 3.666-8.948 5.39-3.63-.103-7.26-.211-10.886-.373-14.925-1.132-14.925-1.132-27.713 5.334l-2.305 2.789c-3.863 4.518-7.69 5.883-13.525 6.57-16.13.07-26.046-4.743-38.727-14.32l3.45-25.876-5.87.364c-25.245 1.1-25.245 1.1-36.005-7.77l-2.977-2.944-2.655-2.567c-8.267-8.967-12.22-19.07-11.746-31.14 2.032-14.38 7.81-25.028 17.851-35.297" fill="#fdd046"/><path d="M745.153 398.514q4.916 1.359 9.838 2.696l5.184 1.408 3.954 1.07c-1.798 34.836-4.206 69.602-7.01 104.37l-.458 5.713q-.659 8.168-1.327 16.335l-.396 4.885a1515 1515 0 0 1-2.885 30.857c-7.889 2.87-14.461 3.65-22.885 3.56l-5.622-.05-4.27-.06c-.22-39.054.05-78.052 1.405-117.086.25-7.442.37-14.875.395-22.322l.074-5.132q.067-4.479-.01-8.955c.124-5.297.512-9.238 4.207-13.2 7.183-5.406 10.875-6.838 19.806-4.09" fill="#fdeb93"/><path d="M678.866 402.571c9.662 10.552 7.116 27.538 7.168 41.05q.12 5.435.267 10.863c.233 9.513.352 19.023.45 28.537.12 9.714.344 19.426.56 29.14.408 19.046.698 38.089.914 57.137q-5.284.07-10.567.11l-5.944.06c-5.593-.16-10.78-.835-16.266-1.895-1.815-6.203-2.315-12.32-2.845-18.751l-.299-3.573q-.483-5.853-.953-11.707l-.677-8.216a11456 11456 0 0 1-1.41-17.272q-.888-10.932-1.792-21.862-.7-8.508-1.393-17.017l-.661-8.04c-1.575-19.135-2.788-38.272-3.771-57.446 14.278-5.834 23.104-9.245 37.219-1.118" fill="#fdec94"/><path d="M722.727 407.14c.37 32.03-.689 64.033-1.6 96.047q-.317 11.208-.624 22.418-.607 21.847-1.227 43.693-7.707.07-15.419.11l-4.443.042-4.229.018-3.914.027c-3.046-.197-3.046-.197-4.772-1.922a159 159 0 0 1-.512-8.82l-.209-5.745-.202-6.305-.225-6.51q-.295-8.717-.57-17.433-.172-5.372-.35-10.74c-1.126-34.39-1.932-68.747-1.382-103.156l5.417.06 7.09.049 3.564.043c8.129.04 15.564-1.877 23.607-1.877" fill="#d35722"/><path d="M985.264 391.613c10.075 5.493 16.751 13.258 20.374 24.152 2.104 27.137 2.104 27.137-6.9 37.952-10.315 9.791-21.13 14.801-35.462 14.461-9.926-1.556-18.534-6.433-25.668-13.383-7.53-12.65-9.605-22.497-7.87-37.305 3.038-10.83 9.815-17.934 18.977-24.152 12.565-6.981 23.495-7.526 36.55-1.725" fill="#4b3613"/><path d="M802.081 391.613h32.777c-2.513 22.611-6.512 44.748-10.89 67.063l-3.163 16.242q-1.035 5.322-2.075 10.644a1855 1855 0 0 0-5.544 29.632l-1.137 6.278a1064 1064 0 0 0-1.908 10.935c-2.027 11.11-4.575 19.114-13.882 26.218-4.984 2.253-9.464 3.143-14.88 3.773-.446-11.48 1.265-22.51 2.911-33.855q.706-4.986 1.408-9.971.755-5.367 1.52-10.735a7199 7199 0 0 0 5.482-39.78l.554-4.078a2840 2840 0 0 0 8.827-72.366" fill="#efc332"/><path d="M569.193 391.613h34.502q1.518 11.914 3.019 23.829l.467 3.714c2.6 20.672 4.977 41.363 7.287 62.07a1648 1648 0 0 0 7.825 59.715l.835 5.609.743 4.885c.525 4.063.525 4.063.525 9.238-9.504-.388-14.398-2.591-21.448-8.934-4.575-5.315-5.566-10.834-6.74-17.614l-.863-4.286a935 935 0 0 1-2.634-13.965q-.949-4.874-1.91-9.744c-1.67-8.53-3.28-17.07-4.88-25.614-1.637-8.682-3.33-17.353-5.017-26.025a7323 7323 0 0 1-7.29-38.055l-.756-3.994a1023 1023 0 0 1-3.665-20.829" fill="#efc230"/><path d="M393.232 329.51c7.475-.202 14.95-.323 22.427-.432l6.38-.174c12.57-.136 20.963.568 31.572 7.506 8.412 8.855 11.163 16.138 10.896 28.174-1.13 9.526-4.746 17.198-11.22 24.226-13.042 7.535-25.363 8.725-40.216 8.41l-5.23-.028c-12.616-.136-12.616-.136-14.609-2.129a385 385 0 0 1-.169-14.508l.007-4.402c.01-4.658.033-9.316.054-13.973l.024-9.452q.03-11.61.084-23.218m18.977 22.426v25.876c11.934.442 20.571.747 31.051-5.175 2.174-4.347 1.584-6.648.97-11.429l-.532-4.271-.438-3.276c-11.2-5.486-19.307-7.597-31.051-1.725" fill="#483412"/><path d="M614.583 309.67c8.084 1.096 10.234 4.03 15.494 9.92 3.883 3.982 8.27 5.92 13.295 8.194l1.725 3.45c3.478 1.957 3.478 1.957 6.9 3.45l-1.725 3.451c-9.919-1.51-9.919-1.51-13.8-3.45v-3.45H622.67l-.749 5.235-4.427 30.992c-9.791 2.765-18.629 4.08-28.788 4.097l-3.83.128c-6.31.034-10.173-.577-15.645-3.8-3.78-4.196-4.706-5.76-4.676-11.314.452-7.835 3.143-12.145 8.558-17.677 4.99-4.165 10.14-7.661 16.78-7.661l.215-4.636c2.015-7.632 5.45-9.941 11.86-14.34 4.186-1.755 8.084-1.905 12.614-2.588" fill="#fcd753"/><path d="m696.85 263.956 5.175 1.725c1.941 6.907 1.551 10.225-1.618 16.604-4.081 9.53-5.129 17.979-3.557 28.248 3.976 8.591 10.295 15.093 18.976 18.977 12.09 2.154 23.161-1.122 34.502-5.176-5.365 5.672-10.378 10.07-17.25 13.801l3.45 3.45c-8.143 4.072-18.797 2.722-27.602 1.725-12.518-5.137-20.9-14.756-27.28-26.414-4.712-14.64-1.918-27.22 4.853-40.865 3.183-4.48 6.492-8.128 10.351-12.075" fill="#fac82a"/><path d="M968.162 679.24c7.766 5.71 9.767 11.982 11.604 21.166h-62.103c2.1-10.5 6.067-15.302 13.8-22.426 11.785-6.148 25.285-5.174 36.699 1.26" fill="#4e3814"/><path d="M1523.168 679.705c7.055 6.685 7.487 10.65 10.35 20.701h-62.103c3.95-13.806 7.745-18.032 19.735-24.798 11.403-2.781 21.77-1.574 32.018 4.097" fill="#4b3513"/><path d="M1165.64 676.47c6.884 3.965 9.834 6.985 14.233 13.585.862 5.124.862 5.124 1.725 10.351h-60.379c2.105-12.62 2.105-12.62 8.626-18.976 11.627-8.07 22.426-8.974 35.796-4.96" fill="#503a15"/><path d="m446.926 696.849 4.758.047 3.652.06c-.357 3.127-.357 3.127-1.725 6.9-3.578 2.588-3.578 2.588-8.087 5.176-10.696 7.014-14.824 15.988-19.515 27.601l-5.175-1.725c-2.558-6.046-2.28-12.538-1.725-18.976 6.288-11.877 14.294-19.257 27.817-19.083" fill="#fac82a"/><path d="M1285.104 391.613c14.198-.62 24.013-.943 35.157 8.734 4.072 7.354 3.382 14.091 2.795 22.318-6.141-2.712-9.005-6.046-13.214-11.28-7.16-7.817-16.527-8.564-26.463-9.421z" fill="#faca2f"/><path d="M620.946 313.984a72.6 72.6 0 0 1 15.526 13.8v3.45h-43.128c0-8.625 0-8.625 3.126-12.506 7.149-5.719 15.686-6.71 24.476-4.744" fill="#f6c53b"/><path d="M1164.468 676.255c1.087.569 2.19 1.138 3.33 1.725-5.607 1.868-9.23 1.677-15.095 1.402-9.954-.06-15.095.946-22.858 7.223l-5.175 10.35h56.928v3.451h-60.379c2.105-12.62 2.105-12.62 8.626-18.976 10.937-7.589 21.943-9.312 34.623-5.175" fill="#231205"/><path d="m738.252 367.462 6.9 5.175 2.723-1.82c5.767-2.251 9.776-1.21 15.823-.12l6.119 1.064 4.663.876v5.175l12.075-1.725c-4.114 4.301-6.572 6.723-12.69 7.25-14.77.246-24.484-1.97-35.613-12.425z" fill="#fbe265"/><path d="M1381.71 417.49c-.639 5.563-1.467 8.323-5.055 12.722-4.002 4.487-4.002 4.487-5.4 10.998l-1.621 5.606-5.175 1.725c-4.106-4.109-4.003-5.261-4.089-10.888.12-5.943.535-7.92 3.778-13.154 6.02-5.691 9.367-7.453 17.562-7.01" fill="#fac51f"/><path d="M1597.347 331.235c7.625-.2 15.25-.323 22.858-.432l6.555-.174 6.314-.069 5.796-.109c6.193.96 8.177 2.79 11.955 7.684.88 4.798.328 8.877 0 13.8l5.175-1.724-1.725 5.175-5.175-1.725-3.45-17.251-4.054.083c-6.055.107-12.093.174-18.148.241l-6.4.131-6.09.05-5.641.083-4.52-.588z" fill="#f9df53"/><path d="M924.563 684.88c0 5.175 0 5.175-3.45 12.076l53.478-1.725-3.45-10.35c6.214 5.413 6.892 6.863 8.625 15.525h-62.103c1.544-7.725 2.156-9.957 6.9-15.526" fill="#211004"/><path d="M1692.228 814.263c1.293 2.803 1.293 2.803 1.725 6.9-4.658 9.309-9.868 12.938-18.976 17.251-9.489 2.369-18.942 2.043-28.672 2.05l-5.485.063-5.262.01-4.779.021c-4.105-.419-4.105-.419-9.28-3.869l4.433-.076c5.451-.105 10.92-.235 16.371-.376 2.364-.057 4.71-.107 7.073-.145 3.399-.059 6.797-.152 10.195-.245l6.194-.138c6.33-.818 10.557-2.886 16.112-5.92h3.45l1.518-3.882a143 143 0 0 1 5.383-11.644" fill="#463613"/><path d="m834.858 274.306 1.725 3.45 5.175-.322c7.574.03 14.086 1.789 20.702 5.498 4.32 4.86 5.077 8.044 6.144 14.448-1.304 8.411-4.844 12.93-11.32 18.329-5.822 2.48-5.822 2.48-10.35 3.45v-3.45c3.364-2.3 6.883-4.208 10.443-6.186 3.866-2.81 5.212-4.865 6.808-9.34-.566-5.54-1.69-10.244-3.45-15.526-10.632-4.03-23.583-1.858-34.502 0z" fill="#261606"/><path d="m556.24 612.09 6.268.032 6.469.088 6.59.047q8.027.062 16.052.169l1.725 3.45-4.56.048q-8.446.118-16.888.311-3.64.072-7.284.109c-18.634.18-18.634.18-35.097 8.158l-3.45-1.725c9.447-8.336 17.665-10.806 30.176-10.687" fill="#4b3712"/><path d="m653.507 608.869 6.024.046 4.542.06-1.725 5.176q-7.979.433-15.957.863l-4.563.25-4.413.234-4.052.22c-3.562.148-7.128.158-10.692.158l-3.45 6.9-6.9-1.725c3.636-4.031 6.648-6.146 11.75-7.978l3.377-1.253c8.706-2.532 17.025-3.044 26.059-2.951" fill="#483410"/><path d="M1526.618 686.605c5.555 4.586 5.33 5.886 6.9 13.801h-56.928v-3.45h53.478z" fill="#251204"/><path d="m757.551 263.74 6.578.216v1.725l-3.336.633-4.32.876-4.306.85-3.564 1.091-1.725 3.45 5.39-.322c7.224.348 11.014 1.576 17.036 5.498 4.382 6.726 3.61 12.167 2.688 19.866-1.382 6.15-3.904 9.783-7.863 14.636 0-5.176 0-5.176 1.711-8.276 2.303-5.034 2.074-9.074 1.955-14.582l-.095-5.634-.12-4.285c-5.19-1.73-9.554-2.248-14.989-2.695l-5.194-.438-3.97-.318c.539-4.097.539-4.097 1.726-8.625 5.329-3.552 6.398-3.863 12.398-3.666" fill="#fac521"/><path d="M479.487 657.279c5.272 5.273 5.115 9.196 5.498 16.604-.079 8.479-1.883 16.562-3.772 24.798l5.175.324c8.173 1.129 14.056 5.39 20.701 10.027l5.175 3.45-1.725 3.45-3.093-2.143-4.131-2.817-4.063-2.79c-7.516-4.612-14.515-6.561-23.215-7.776l1.712-5.93c1.973-7.891 2.135-15.302 1.954-23.397l-.048-4.05a1225 1225 0 0 0-.168-9.75" fill="#231405"/><path d="M1613.373 328.87h3.502c3.52-.007 7.039-.07 10.558-.135l6.728-.02 6.176-.044c6.417 1.011 8.332 2.622 12.213 7.739 2.277 6.253 2.277 6.253 3.45 12.076l-1.725 3.45h-3.45c-.207-1.225-.414-2.45-.62-3.713-.45-2.378-.45-2.378-.88-4.804-.294-1.582-.57-3.162-.846-4.792a954 954 0 0 0-1.104-3.942c-5.037-2.52-9.488-1.917-15.112-1.894l-3.45.008q-5.486.018-10.972.054l-7.435.022c-6.072.02-12.162.05-18.234.085 5.779-5.781 13.352-4.02 21.201-4.09" fill="#060200"/><path d="M1442.088 520.996c.81.707 1.622 1.414 2.467 2.142 1.07.93 2.14 1.86 3.26 2.817l3.21 2.79c8.262 6.831 15.266 7.875 25.72 8.322l4.865.219 5.02.207a6676 6676 0 0 0 17.562.754v1.725c-6.642.152-13.3.243-19.943.324l-5.675.131c-13.611.124-22.288-.899-32.915-9.943-3.571-4.313-3.571-4.313-3.571-9.488" fill="#2f200a"/><path d="M1381.71 422.665c0 5.175 0 5.175-3.226 9.057-4.21 5.451-5.469 10.193-7.125 16.82-1.725 1.725-1.725 1.725-6.141 1.833l-4.21-.108c-3.208-5.39-3.795-8.786-3.019-14.986.156-1.36.31-2.72.466-4.118.276-1.097.552-2.193.828-3.323l3.45-1.725v18.976l6.9 1.725c.156-1.02.311-2.04.45-3.093 1.759-9.841 3.864-14.717 11.627-21.058" fill="#fdf2a6"/><path d="M1674.977 631.402c1.983 3.733 1.983 3.733 3.14 7.979.396 1.41.793 2.82 1.207 4.273a473 473 0 0 1 .828 3.274l-5.175 5.175c-.104-1.225-.207-2.45-.311-3.712-.224-2.379-.224-2.379-.431-4.805a359 359 0 0 1-.432-4.792c-.138-3.876-.138-3.876-2.277-5.667-3.45-.272-6.9-.433-10.35-.545l-6.349-.219-6.693-.205-6.71-.226c-5.486-.185-10.972-.36-16.475-.53v-1.725c6.728-.39 13.438-.738 20.166-1.078l5.762-.337 5.572-.269 5.124-.274c5.227.255 8.763 1.297 13.404 3.683" fill="#382008"/><path d="m698.575 215.653 1.725 3.45-2.372 4.853c-4.337 9.305-4.088 19.55-4.528 29.65-6.418-2.116-12.728-4.327-18.976-6.901 4.447-1.589 6.2-2.044 10.592-.04l3.209 1.765.512-4.104c1.584-11.13 3.486-19.357 9.838-28.673" fill="#231405"/><path d="m1669.801 633.127 5.176 1.725 1.725 15.526 15.526-12.076 3.45 1.726-3.761 2.912c-4.813 3.952-9.143 8.154-13.49 12.613l-5.176-1.725c-2.087-4.199-2.277-7.621-2.69-12.291-.139-1.57-.294-3.14-.432-4.758-.103-1.204-.207-2.41-.328-3.652" fill="#f9e85b"/><path d="M755.503 198.402c9.573 3.097 16.37 8.427 22.211 16.604 2.762 8.29 2.357 16.142 1.94 24.798l8.626-1.725c-2.156 2.588-2.156 2.588-5.175 5.176h-6.9l.241-4.104c.568-15.668.568-15.668-7.142-28.673a138 138 0 0 0-11.025-8.343l-2.776-2.008z" fill="#190d02"/><path d="m1148.51 608.869 4.106.022c3.347.021 6.676.052 10.006.085v3.45l-41.403 1.725c7.108-7.104 17.838-5.386 27.292-5.282" fill="#35250c"/><path d="M363.906 653.828c2.184 6.671 1.918 13.339 1.832 20.27l-.023 3.645q-.034 4.434-.084 8.862c-8.09-.976-16.121-2.044-24.152-3.45v-1.725l6.47-.107 3.638-.062c3.75.172 6.993.864 10.594 1.894l-.499-3.787c-1.08-9.415-1.851-16.673 2.224-25.54" fill="#1b0e03"/><path d="m1388.61 472.693 10.35 6.9-3.45 1.725c.07 1.085.121 2.17.19 3.288.328 10.596-.742 18.178-5.365 27.764l-5.175 3.45 1.621-3.988c5.02-12.699 4.71-25.814 1.829-39.14" fill="#1a0e03"/><path d="M1376.534 420.94c0 6.942-3.036 9.848-6.9 15.526-1.225 2.84-2.415 5.705-3.45 8.625l-5.176-1.725c1.88-12.265 1.88-12.265 6.366-16.637 2.967-2.073 6.055-3.948 9.16-5.79" fill="#fbcd33"/><path d="m574.368 338.135 3.45 1.725-2.48 3.02c-4.669 6.722-5.11 13.018-4.42 21.132 2.372 3.241 2.372 3.241 5.175 5.175-4.946-.989-6.662-1.485-10.35-5.175-1.246-6.549-1.479-12.987 1.933-18.849 2.38-2.822 2.38-2.822 6.692-7.028" fill="#f9ed6a"/><path d="M1257.502 498.57c1.07.332 2.14.667 3.226 1.01a333 333 0 0 0 29.551 7.615v1.725c-12.024.678-21.58-.637-32.777-5.175z" fill="#3d2b0e"/><path d="M453.61 612.426c11.747 1.74 20.768 8.279 28.572 17.035l2.48 3.666-3.45 1.725-3.558-3.773c-6.965-6.964-14.998-12.948-24.043-16.928z" fill="#3a290f"/><path d="M1041.865 332.96c10.368 4.225 17.51 13.74 24.151 22.426 1.415 4.097 1.415 4.097 1.725 6.9-4.364-4.209-8.487-8.6-12.507-13.153a748 748 0 0 1-2.708-3.087c-2.036-2.736-2.036-2.736-2.036-6.186-1.104-.498-2.208-.995-3.33-1.51-3.57-1.94-3.57-1.94-5.295-5.39" fill="#30210b"/><path d="m746.878 324.334 3.45 1.725c-10.264 8.798-10.264 8.798-17.25 10.351-5.856-.757-11.531-2.006-17.252-3.45v-1.725l4.603-.633 6.07-.877 6.005-.849c5.697-.888 5.697-.888 10.58-3.046z" fill="#fac423"/><path d="M346.655 653.828h1.725c.167 10.613.167 10.613 0 13.801-3.124 3.124-7.958 2.384-12.185 2.697l-5.773.436-4.468.317 1.725-3.45c3.443-.728 3.443-.728 7.654-1.294 4.202-.695 4.202-.695 7.872-2.156 2.917-5.146 2.917-5.146 3.45-10.35" fill="#3e2b0f"/><path d="m1093.618 510.645 5.4 3.99c4.14 2.993 7.849 5.196 12.506 7.439 4.52 2.372 4.52 2.372 6.245 7.547-7.59-.876-11.334-3.397-16.923-8.517-1.363-1.226-2.726-2.451-4.123-3.714-3.105-3.295-3.105-3.295-3.105-6.745" fill="#3c2b0f"/><path d="m968.66 387.84 4.104-.074c3.552.397 3.552.397 7.002 3.847H960.79v3.45h-10.35c5.506-6.03 10.199-7.157 18.22-7.223" fill="#38250c"/><path d="M1692.228 814.263c1.293 2.803 1.293 2.803 1.725 6.9-4.624 9.264-9.937 12.904-18.976 17.251h-3.45v-3.45c9.919-5.175 9.919-5.175 13.8-5.175l1.518-3.882a143 143 0 0 1 5.383-11.644" fill="#3a290e"/><path d="M614.045 276.031h1.725l1.725 17.251-18.976 1.726c5.032-3.356 7.979-4.232 13.801-5.176z" fill="#30220b"/><path d="m1110.869 619.326-24.152 12.076c2.088-6.238 3.589-6.809 9.178-9.92 1.346-.774 2.691-1.547 4.071-2.344 4.002-1.537 4.002-1.537 10.903.188" fill="#39280d"/><path d="m757.551 263.74 6.578.216v1.725l-3.336.633-4.32.876-4.306.85-3.564 1.091-1.725 3.45h10.35v1.725l-13.8 1.725c.538-4.097.538-4.097 1.725-8.625 5.329-3.552 6.398-3.863 12.398-3.666" fill="#fac112"/><path d="M827.958 686.605q.107 6.038 0 12.076l-1.725 1.725a402 402 0 0 0-1.726 12.076h-1.725V688.33c3.45-1.725 3.45-1.725 5.176-1.725" fill="#efc547"/><path d="m1062.566 652.103 3.45 1.725c-1.104 1.567-2.208 3.131-3.33 4.744-3.674 5.11-3.674 5.11-4.536 9.597-.242.96-.5 1.92-.76 2.91l-5.175 1.725c.794-8.672 5.158-14.057 10.351-20.7" fill="#3a2a0e"/><path d="M1526.618 686.605c5.003 4.132 6.038 7.44 6.9 13.801h-13.8v-3.45h10.35z" fill="#251405"/><path d="M1643.925 331.235c3.26.384 3.26.384 6.9 1.725 1.88 3.443 1.88 3.443 3.14 7.656.431 1.385.862 2.77 1.328 4.197.707 3.673.707 3.673-1.018 7.123h-3.45c-.31-1.808-.31-1.808-.62-3.652-.294-1.57-.587-3.14-.88-4.758a296 296 0 0 1-.846-4.73c-.81-4.396-.81-4.396-4.554-7.561" fill="#2a1807"/><path d="M1559.395 645.203c5.951 2.46 8.798 5.344 12.507 10.566 1.345 1.875 1.345 1.875 2.725 3.787l2.019 2.898-1.725 3.45c-.69-.956-1.363-1.913-2.07-2.898-.915-1.25-1.829-2.5-2.778-3.787-.897-1.24-1.794-2.482-2.725-3.76-2.83-3.752-2.83-3.752-7.953-6.806z" fill="#f6e760"/><path d="m1533.518 313.984 5.176 1.725c-10.748 6.957-10.748 6.957-17.027 6.685-3.675-1.51-3.675-1.51-5.4-4.96l5.728.216c6.503.338 6.503.338 11.523-3.666" fill="#37270d"/><path d="M1416.212 802.187c5.503 4.168 9.919 8.073 13.8 13.8l-1.725 3.451a723 723 0 0 1-6.038-5.714c-1.673-1.592-1.673-1.592-3.398-3.215-2.64-3.147-2.64-3.147-2.64-8.322" fill="#3d2d0e"/><path d="m1264.403 408.864 3.45 1.725c-5.934 9.98-5.934 9.98-10.782 11.86l-3.019.216c3.002-5.275 5.848-9.72 10.35-13.8" fill="#f8f0ac"/><path d="M638.197 683.155c5.724 1.703 8.22 2.91 11.86 7.763l1.94 4.313-1.725 3.45q-3.027-3.392-6.038-6.792l-3.396-3.82c-2.641-3.189-2.641-3.189-2.641-4.914" fill="#f4e35d"/><path d="M370.806 646.928c1.725 3.45 1.725 3.45.323 9.597-2.048 5.929-2.048 5.929-5.498 7.654 1.294-11.429 1.294-11.429 5.175-17.251" fill="#fcf4ab"/><path d="M852.109 282.932c4.097.324 4.097.324 8.626 1.725 2.263 4.421 2.263 4.421 3.45 8.625-5.069-2.263-5.069-2.263-10.35-5.175z" fill="#f8efa5"/><path d="M893.511 829.789c6.138 1.052 11.53 2.722 17.251 5.175v1.725c-11.252-1.061-11.252-1.061-15.419-4.42z" fill="#433010"/><path d="m860.735 295.008 3.45 3.45c-.216 4.313-.216 4.313-1.725 8.625-3.56 2.265-3.56 2.265-6.9 3.45l1.616-3.881c1.504-3.894 2.655-7.582 3.559-11.644" fill="#f9f0a4"/></svg>