<svg xmlns="http://www.w3.org/2000/svg" viewBox="0 0 2079 1024"><path d="M2080 104c0 273.7 0 547.399-.376 821.659-.79 1.237-1.466 1.873-1.577 2.596-3.195 20.769-12.325 38.946-25.727 54.697-15.892 18.677-35.602 32.052-59.751 38.105-5.507 1.38-11.045 2.632-16.569 3.943-623.366 0-1246.732 0-1870.698-.395-2.424-.471-4.3-.301-6.068-.66-20.696-4.21-39.751-12.312-55.752-26.168-18.942-16.401-32.842-36.305-38.653-61.196C3.91 932.638 2.294 928.856 1 925c0-274.366 0-548.732.373-823.67.79-1.78 1.382-2.96 1.6-4.206C6.548 76.69 15.322 58.565 28.712 42.979c15.971-18.591 35.612-31.983 59.73-38.044C93.945 3.552 99.48 2.308 105 1c623.366 0 1246.732 0 1870.698.395 12.21 1.039 22.997 4.817 33.536 9.33 15.351 6.575 28.404 16.381 39.692 28.662 10.632 11.566 18.994 24.523 24.005 39.42 2.778 8.256 4.74 16.787 7.069 25.193M23 180.5c0 243.164-.005 486.328.014 729.492 0 12.662 3.31 24.617 8.535 36.034 7.245 15.832 17.91 29.003 32.126 39.062 15.49 10.959 32.715 17.826 51.824 17.829 616.498.1 1232.995.085 1849.493.07 12.66-.001 24.593-3.361 36.039-8.523 15.908-7.174 29.013-17.942 39.036-32.154 10.913-15.473 17.853-32.665 17.86-51.808.108-264.832.077-529.665.06-794.497-.001-12.662-3.313-24.615-8.537-36.033-7.245-15.833-17.91-29.002-32.127-39.061-15.489-10.96-32.715-17.824-51.824-17.828-615.664-.1-1231.329-.104-1846.993.11-9.575.004-19.45 1.91-28.66 4.678-17.392 5.225-31.878 15.303-43.666 29.352-14.327 17.074-22.636 36.47-23.088 58.78C22.664 137.16 23 158.332 23 180.5" fill="#f93109"/><path fill="#f93109" d="M72 493.736c75.666-.633 151.332-.633 227.445-.633v82.185h-72.154v199.125h-83.56V575.361H72.63C72 548.364 72 521.364 72 493.736m529.957 200.295v80.508h-83.276V559.67h83.184v15.523c34.675-32.147 97.203-25.782 118.442 5.739 5.199-4.48 10.291-9.022 15.546-13.361 10.31-8.511 22.658-11.665 35.575-12.331 16.002-.823 31.91-.394 46.985 6.453 23.921 10.862 36.721 30.268 42.306 54.997 1.792 7.923 2.677 16.211 2.734 24.341.255 44.269.118 88.535.118 133.357h-86.306v-6.879c0-36.191.077-72.373-.1-108.555-.016-4.551-.716-9.321-2.208-13.602-3.41-9.776-12.926-15.834-21.762-14.632-11.327 1.538-16.96 7.07-18.966 19.407a112 112 0 0 0-1.406 17.225c-.118 35.506-.061 71.007-.061 107.052h-86.304v-6.93c0-37.526-.126-75.063.068-112.592.076-15.242-11.471-27.42-28.986-22.847-7.85 2.05-13.224 9.512-14.1 21.149-1.004 13.355-1.028 26.78-1.483 40.847M332.259 244.472c46.783-.682 93.565-.749 140.972-.715 10.173 2.257 19.909 3.802 29.232 6.687 36.231 11.209 58.253 35.647 64.175 73.115 4.169 26.409.849 51.985-14.505 74.967-7.55 11.299-17.42 19.914-29.187 26.362 19.506 32.763 39.034 65.572 59.067 99.229h-84.492c-1.122 0-2.256-.094-3.367.013-6.522.633-10.607-.706-14.414-7.673-13.805-25.269-29.399-49.556-43.396-74.723-4.371-7.852-9.514-9.19-17.738-7.296v89.368h-86.347zm119.471 66.424c-10.833-.569-21.666-1.135-32.767-1.712v58.333c15.007.21 29.645 1.343 43.813-3.88 10.306-3.791 19.591-18.407 17.737-28.318-2.556-13.669-12.98-22.841-28.783-24.423m853.13 309.317c4.58-5.974 8.48-11.958 13.29-17.091 4.59-4.938 10.14-8.995 15.13-14.871l-29.76 3.017c4.94-16.162 21.26-25.943 46.07-26.938-5.75-5.177-10.7-9.637-16.29-14.686 5.42-4.772 10.38-9.114 16.06-14.093 3.01 4.108 5.85 7.915 8.6 11.779 2.79 3.895 5.49 7.845 8.64 12.331 7.57-13.703 18.61-21.095 34.16-19.136 4.6.575 10.32 1.47 11.89 8.307-6.84 2.116-12.31 5.333-10.88 13.044 11.48 0 22.59-.521 33.61.108 23.55 1.344 44.42 9.415 62.48 25.138 20.52 17.913 31.07 41.121 34.19 67.187 3.47 29.038-4.57 55.395-23.85 78.298-21.36 25.451-49.13 39.515-80.98 44.627-35.73 5.728-69.56-.523-98.86-23.642-20.8-16.396-32.17-37.99-36.05-63.995-3.64-24.445-.83-47.588 12.55-69.384M979.85 779.666c-4.403.508-8.487.574-13.186.54-12.583-4.033-24.987-6.98-36.391-12.144-15.748-7.115-27.137-19.69-35.938-34.409-14.375-24.021-18.948-50.444-17.119-77.886 1.59-23.638 8.27-46.143 23.251-64.884 15.572-19.488 35.559-32.159 61.034-35.958 20.297-3.023 37.999 1.866 54.109 13.707 4.95 3.623 9.25 8.104 14.81 13.063v-20.688h83.55v212.236h-83.02v-19.48c-.49-.33-.95-.667-1.42-1.003-13.44 14.749-28.98 25.326-49.68 26.906m31-143.563c-22.955-10.648-45.34 2.163-49.603 22.905-5.045 24.485 13.443 45.325 38.893 41.976 15.95-2.096 26.58-13.632 29.01-28.848 2.15-13.346-2.24-27.037-18.3-36.033m560.76-273.944c1.36 7.015 3.68 13.445 3.82 19.914.75 45.288 1.05 90.585 1.48 135.877.02 1.77 0 3.539 0 5.733h-87.62v-7.285c0-37.295-.22-74.589.12-111.885.09-11.788-7.12-22.658-20.43-23.108-11.89-.401-20.73 3.35-24.02 17.918-1.79 7.922-2.68 16.197-2.75 24.323-.3 30.776-.11 61.557-.11 92.335v7.72h-85.94V310.244h85.88v20.052c27.37-28.232 58.37-33.192 91.46-18.3 20.7 9.286 32.68 27.448 38.11 50.163" style="transform-origin:993.516px 511.868px"/><path fill="#f93109" d="M398.673 779.651c-5.766.523-11.201.589-17.252.555-8.581-1.374-16.654-2.173-24.483-3.998-40.237-9.415-74.12-37.814-82.603-80.045-1.903-9.49-4.17-19.24-3.812-28.777.981-26.313 6.096-51.522 23.957-72.559 19.237-22.661 43.809-34.168 72.887-38.665 33.695-5.216 65.24-.76 93.88 17.914 23.749 15.482 37.306 38.021 42.386 66.016 4.953 27.284 3.401 53.856-8.247 79.11-14.396 31.199-39.995 48.969-72.739 56.954-7.67 1.868-15.75 2.072-23.974 3.495m5.643-82.742c2.69-1.47 5.662-2.581 8.019-4.466 17.329-13.832 20.101-37.76 2.977-54.409-12.125-11.792-27.658-13.516-43.125-6.984-19.178 8.093-28.097 32.973-16.596 50.733 8.569 13.228 25.842 23.462 48.725 15.126m1266.004 82.742c-6.68.523-13 .589-19.94.555-10.29-1.81-20.08-3.037-29.58-5.348-15.86-3.849-29.63-11.739-42.48-21.903-20.18-15.986-31.02-37.259-34.77-61.832-4.73-31.103-1.6-61.599 16-88.739 16.06-24.811 38.88-40.394 68.3-45.945 25.13-4.75 49.63-3.3 73.39 6.749 17.07 7.218 30.19 19.239 40 34.664 11.26 17.801 18 37.195 17.76 58.63-.11 9.469-.01 18.939-.01 29.272h-139.97c4.78 27.667 65.01 35.088 84.96 7.403 17.44 16.357 34.75 32.618 52.46 49.236-9.63 12.541-22.4 20.969-36.78 27.061-15.63 6.6-31.98 9.867-49.34 10.197m-45.17-136.864h58.2c-4.27-22.249-21.88-27.488-37.99-25.355-12.19 1.626-24.85 11.235-26.13 25.121 1.57.079 3.13.156 5.92.234m-477.39-201.928c-10.75-12.543-16.73-26.849-19.82-42.355-4.45-22.498-4.03-44.984 2.69-66.999 6-19.508 16.46-36.052 32.18-49.69 15.04-13.053 32.1-20.838 51.32-23.919 33.6-5.376 65.67-1.412 92.51 21.262 17.09 14.413 27.61 33.687 32.92 55.526 4.18 17.369 3.63 34.971 2.37 53.214h-140.08c5.3 14.888 16.91 21.053 30.06 24.052 20.82 4.745 44.66-2.634 54.81-16.323 2.01 1.39 4.32 2.574 6.12 4.292a5705 5705 0 0 1 38.69 37.289c8.48 8.213 8.43 8.234-.4 16.486-13.91 13.038-30.68 20.894-49.1 24.289-14.53 2.678-29.53 4.376-44.26 4.046-32.37-.731-61.41-11.04-84.72-34.6-1.86-1.872-3.3-4.139-5.29-6.57m65.88-115.067c-5.59 5.052-10.41 10.552-11.49 18.97 20.68 0 40.91.005 61.08-.014 1.07-.001 2.14-.211 3.44-.354-2.34-9.349-5.9-17.02-15.14-21.416-12.98-6.206-25.12-4.66-37.89 2.814m-414.778 43.307c9.312 24.79 10.106 49.583 5.681 74.977-3.809 21.873-13.29 40.58-29.358 55.661-15.1 14.171-33.165 23.66-53.578 26.789-15.32 2.347-31.189 3.931-46.539 2.629-39.888-3.402-73.354-19.398-93.442-56.034-7.401-13.497-11.014-28.381-12.352-44.106-1.669-19.588.473-38.338 7.16-56.537 7.899-21.5 22.12-37.961 41.676-49.998 25.998-16.009 54.724-19.628 84.262-17.958 21.069 1.191 41.281 6.897 59.186 18.608 17.098 11.175 29.57 26.395 37.304 45.969m-174.52 41.949c8.094 2.59 16.426 4.643 24.131 8.093 2.416 1.081 3.967 5.862 4.224 9.086.101 1.192-4.536 3.727-7.183 3.997-6.005.611-12.111.088-18.173.23-5.265.12-13.301 6.978-14.504 12.136-1.759 7.508 1.734 15.398 7.352 19.155 10.606 7.088 20.064 1.576 26.372-5.969 2.867-3.424 5.649-7.506 9.415-9.418 3.468-1.762 8.724-2.345 12.252-1 3.508 1.337 5.105 5.701 2.786 10.281-1.455 2.884-1.937 6.265-2.803 9.437-2.921 10.69-.765 17.294 7.489 22.134 6.408 3.752 13.314 3.941 19.443.066 5.679-3.583 9.686-9.126 7.81-16.385-1.206-4.615-3.961-8.805-5.686-13.306-1.869-4.864-2.074-10.222 2.601-13.214 4.441-2.84 9.273-1.284 12.71 2.969 2.35 2.909 4.488 5.988 6.762 8.96 8.137 10.662 17.173 19.42 32.178 18.749 9.637-.434 17.552-11.257 15.278-21.037-2.999-12.919-12.977-17.588-24.052-20.794-7.763-2.242-15.816-3.464-23.606-5.608-6.526-1.794-7.985-7.555-6.259-12.762 1.158-3.456 5.132-6.859 8.668-8.402 3.849-1.685 8.642-1.48 13.037-1.59 9.304-.23 15.588-4.562 18.428-13.158 2.87-8.689-.092-19.891-6.511-24.605-11.023-8.098-26.452-2.607-31.237 11.121-1.364 3.911-2.351 8.01-4.168 11.697-2.796 5.667-7.943 7.885-13.956 6.652-5.004-1.029-9.432-3.779-8.936-9.808.575-7.047 1.383-14.144 2.942-21.024 4.039-17.788-5.878-28.82-23.49-25.646-7.209 1.297-14.302 8.412-15.687 16.206-1.342 7.562 1.571 13.069 7.923 17.644 5.93 4.271 12.445 8.449 14.468 16.407 1.532 6.054-1.945 11.09-8.06 11.78-7.657.864-12.344-2.833-16.346-9.005-3.042-4.678-6.814-9.281-11.255-12.556-5.791-4.27-12.748-3.046-18.559.438-5.136 3.08-9.526 8.293-7.074 14.45 1.998 5.022 6.746 8.946 11.276 13.599M1880.66 779.666c-15.17.508-30.03.574-45.53.54-12.88-3.157-25.27-5.793-37.36-9.399-12.31-3.674-23.33-10.087-34.06-18.4 11.52-19.078 22.88-37.838 33.84-55.981 12.99 5.803 25.29 11.933 38.06 16.803 10.59 4.041 21.9 5.515 33.17 2.249 2.6-.759 5.54-2.36 7.05-4.477 1.51-2.127 2.65-5.902 1.74-8.009-.93-2.22-4.41-4.459-6.96-4.693-6.87-.64-13.98.392-20.81-.332-27.88-2.917-53.37-11.443-70.23-35.539-12.62-18.042-12.75-38.006-4.56-58.03 9.86-24.162 29.98-36.758 53.17-45.023 17.52-6.268 35.84-6.562 54.41-4.422 23.64 2.729 45 11.175 65.42 22.776.36.206.58.683 1.44 1.76-7.5 12.462-15.2 25.215-22.89 37.955-.25.38-.71.616-.94.989-2.51 4.035-4.64 11.068-7.63 11.458-5.09.665-10.7-2.826-16.08-4.65-14.2-4.822-28.32-10.355-43.64-9.245-3.85.279-8.24 1.971-11.19 4.44-4.64 3.889-3.04 9.638 2.93 11.433 3.72 1.123 7.84 1.547 11.76 1.392 21.42-.839 42 2.549 61 12.564 16.47 8.671 29.35 21.244 32.4 40.373 3.82 23.503.25 45.464-16.84 63.951-15.62 16.901-34.56 26.621-57.67 29.517M1150.8 537.598v-36.002h86.11v57.291h33.49v75.565h-33.29v8.205c0 14.832-.03 29.658.01 44.486.03 10.248 3.43 13.618 13.51 13.629 9.17.008 18.34.001 27.88.001v75.67c-25.1-1.333-50.31 3.359-74.6-4.381-27.26-8.673-45.93-26.344-50.19-55.581-2.32-16.007-2.25-32.38-2.85-48.603-.39-10.745-.07-21.515-.07-32.984h-21.17v-75.569h21.17zm-108.92-16.215c-13.37-4.809-24.6-12.043-33.13-22.784-9.12-11.447-15.105-24.657-15.533-39.276-.715-24.353-.186-48.747-.186-73.84h-22.519v-75.558h20.861v-57.762h86.337v57.161h33.51v75.796H1078c0 19.062-.23 37.421.11 55.769.14 6.119 5.63 10.301 12.33 10.382 9.39.111 18.86.028 28.83.028v74.23c-25.7 1.9-51.46 3.502-77.39-4.146m-204.432-57.654c-1.249-26.634-2.155-52.777-3.09-79.655h-20.296V310.08h20.968v-57.967h86.363v57.34h33.472v74.232h-33.309v12.274c0 13.484-.052 26.97.017 40.45.042 10.506 4.532 14.882 15.066 14.889 8.691.007 17.392.001 26.405.001v73.785c-17.891 1.866-35.704 2.375-53.757.703-15.104-1.393-29.232-5.355-41.681-13.476-17.146-11.187-26.713-27.821-30.158-48.582m1169.012 87.17c.5 7.866.56 15.538.53 23.841-3.21 3.574-6.1 6.892-9.52 9.414-8.59 6.331-18.63 6.879-27.68 2.633-9.75-4.592-14.27-13.253-14.22-24.88.05-9.933 6.81-20.936 16.31-24.244 10.32-3.592 23.12-.601 29.76 7.307 1.56 1.849 2.95 3.826 4.82 5.929m-11.95 23.855c1.48-4.209 4.02-8.345 4.3-12.632.65-9.238-7.34-17.242-16.51-17.772-8.01-.461-17.47 7.183-18.35 14.841-1.21 10.645 4.99 20.019 14.23 21.533 6.98 1.148 13.4-1.655 15.47-6.711 0 0-.07.061.86.741" style="transform-origin:993.516px 511.868px"/><path fill="#f93109" d="M1993.67 573.985c-4.65-1.16-9.32-2.287-14.64-3.586.04-.097-.33 1.475-.74 3.3h-7.31v-23.912c6.99.908 14.89-3.16 20.54 3.144 3.86 4.3 2.64 9.94-2.12 13.971 1.54 2.271 2.87 4.235 4.21 6.682-.03.49.04.429.06.401" style="transform-origin:993.516px 511.868px"/></svg>