<svg xmlns="http://www.w3.org/2000/svg" viewBox="0 0 2079 1024"><defs><linearGradient id="a" y1="40.76" x2="190.24" y2="40.76" gradientUnits="userSpaceOnUse" gradientTransform="translate(297.668 198.082)scale(7.8196)"><stop offset="0" stop-color="#90cea1"/><stop offset=".56" stop-color="#3cbec9"/><stop offset="1" stop-color="#00b3e5"/></linearGradient></defs><path d="M2080 104c0 273.7 0 547.399-.376 821.659-.79 1.237-1.466 1.873-1.577 2.596-3.195 20.769-12.325 38.946-25.727 54.697-15.892 18.677-35.602 32.052-59.751 38.105-5.507 1.38-11.045 2.632-16.569 3.943-623.366 0-1246.732 0-1870.698-.395-2.424-.471-4.3-.301-6.068-.66-20.696-4.21-39.751-12.312-55.752-26.168-18.942-16.401-32.842-36.305-38.653-61.196C3.91 932.638 2.294 928.856 1 925c0-274.366 0-548.732.373-823.67.79-1.78 1.382-2.96 1.6-4.206C6.548 76.69 15.322 58.565 28.712 42.979c15.971-18.591 35.612-31.983 59.73-38.044C93.945 3.552 99.48 2.308 105 1c623.366 0 1246.732 0 1870.698.395 12.21 1.039 22.997 4.817 33.536 9.33 15.351 6.575 28.404 16.381 39.692 28.662 10.632 11.566 18.994 24.523 24.005 39.42 2.778 8.256 4.74 16.787 7.069 25.193M23 180.5c0 243.164-.005 486.328.014 729.492 0 12.662 3.31 24.617 8.535 36.034 7.245 15.832 17.91 29.003 32.126 39.062 15.49 10.959 32.715 17.826 51.824 17.829 616.498.1 1232.995.085 1849.493.07 12.66-.001 24.593-3.361 36.039-8.523 15.908-7.174 29.013-17.942 39.036-32.154 10.913-15.473 17.853-32.665 17.86-51.808.108-264.832.077-529.665.06-794.497-.001-12.662-3.313-24.615-8.537-36.033-7.245-15.833-17.91-29.002-32.127-39.061-15.489-10.96-32.715-17.824-51.824-17.828-615.664-.1-1231.329-.104-1846.993.11-9.575.004-19.45 1.91-28.66 4.678-17.392 5.225-31.878 15.303-43.666 29.352-14.327 17.074-22.636 36.47-23.088 58.78C22.664 137.16 23 158.332 23 180.5" fill="url(#a)"/><path d="M1123.96 480.056h523.14c76.28 0 138.12-61.814 138.17-138.094 0-76.31-61.86-138.172-138.17-138.172h-523.14c-76.31 0-138.167 61.862-138.167 138.172.043 76.28 61.887 138.094 138.167 138.094M435.841 831.938h601.329c76.28 0 138.13-61.814 138.17-138.094 0-76.31-61.86-138.172-138.17-138.172H435.841c-76.311 0-138.173 61.862-138.173 138.172.044 76.28 61.893 138.094 138.173 138.094M379.07 475.052h60.993V252.193h78.978v-54.111H300.092v53.955h78.978zm219.731 0h60.993V262.594h.782l70.376 212.302h46.918l72.722-212.302h.782v212.302h60.993V198.082h-92.662l-64.121 180.633h-.782l-63.73-180.633h-92.271zm890.809 158.347a117.9 117.9 0 0 0-35.34-43.164 145.3 145.3 0 0 0-52.24-24.085 262.3 262.3 0 0 0-63.1-7.819h-91.49v276.813h99.7a192.2 192.2 0 0 0 59.03-8.992 151.2 151.2 0 0 0 49.66-25.961 127.3 127.3 0 0 0 34.17-43.008 132.25 132.25 0 0 0 12.75-59.273 144.75 144.75 0 0 0-13.14-64.511m-58.1 101.107a68.8 68.8 0 0 1-20.64 26.587 83.7 83.7 0 0 1-31.28 14.231 168.7 168.7 0 0 1-39.1 4.301h-31.67V615.414h35.97a133 133 0 0 1 36.52 4.926 91.2 91.2 0 0 1 30.34 14.623 71.5 71.5 0 0 1 19.86 24.475 77.2 77.2 0 0 1 7.82 35.345 93.1 93.1 0 0 1-7.82 39.723m348.99-1.016a62.5 62.5 0 0 0-12.36-20.488 65.5 65.5 0 0 0-18.92-14.466 80.7 80.7 0 0 0-24.79-7.82v-.782a72.1 72.1 0 0 0 34.56-22.051 58.07 58.07 0 0 0 13.14-39.098 65.84 65.84 0 0 0-8.99-36.361 63.2 63.2 0 0 0-23.46-21.269 98.2 98.2 0 0 0-32.69-10.166 257 257 0 0 0-36.12-2.58h-103.22v276.814h113.38c12.41.007 24.78-1.304 36.91-3.91a105.8 105.8 0 0 0 33.47-12.903 73.65 73.65 0 0 0 24.24-23.458 66.64 66.64 0 0 0 9.38-36.596 73.2 73.2 0 0 0-4.3-24.866zm-151.86-123.159h41.45c4.85.019 9.69.49 14.46 1.407 4.63.832 9.1 2.334 13.3 4.458a26.45 26.45 0 0 1 9.53 8.836 25.14 25.14 0 0 1 3.76 14.231 28.5 28.5 0 0 1-3.36 14.076 26.6 26.6 0 0 1-8.76 9.383 38.4 38.4 0 0 1-12.36 5.083 58.6 58.6 0 0 1-13.84 1.564h-44.18zm91.65 156.392a30.6 30.6 0 0 1-9.54 10.165 36.3 36.3 0 0 1-13.14 5.474 64 64 0 0 1-14.23 1.564h-54.74v-62.557h46.14c5.23.05 10.45.442 15.64 1.173 5.5.756 10.89 2.201 16.03 4.301a31.3 31.3 0 0 1 12.27 9.227 24.27 24.27 0 0 1 4.93 15.639 29.04 29.04 0 0 1-3.36 15.014" fill="url(#a)"/></svg>